<?xml version="1.0" encoding="UTF-8"?>
<svg xmlns="http://www.w3.org/2000/svg" xmlns:xlink="http://www.w3.org/1999/xlink" width="75px" height="72px" viewBox="0 0 75 72" version="1.1">
<g id="surface1">
<path style=" stroke:none;fill-rule:nonzero;fill:rgb(47.058824%,85.882354%,81.568629%);fill-opacity:1;" d="M 5.640625 1.375 C 5.847656 1.425781 5.847656 1.425781 6.0625 1.476562 C 6.519531 1.589844 6.976562 1.703125 7.433594 1.820312 C 7.761719 1.898438 8.085938 1.980469 8.414062 2.0625 C 9.105469 2.234375 9.800781 2.40625 10.496094 2.578125 C 11.582031 2.851562 12.671875 3.121094 13.757812 3.390625 C 14.855469 3.660156 15.953125 3.933594 17.050781 4.203125 C 20.050781 4.949219 23.058594 5.6875 26.066406 6.417969 C 26.707031 6.574219 27.351562 6.730469 27.992188 6.886719 C 28.492188 7.007812 28.992188 7.128906 29.492188 7.25 C 30.476562 7.488281 31.460938 7.730469 32.445312 7.976562 C 32.957031 8.105469 33.46875 8.230469 33.980469 8.359375 C 34.226562 8.421875 34.472656 8.480469 34.71875 8.542969 C 35.0625 8.632812 35.40625 8.714844 35.75 8.800781 C 35.847656 8.828125 35.949219 8.851562 36.054688 8.878906 C 37.023438 9.117188 37.867188 9.109375 38.828125 8.871094 C 39.082031 8.808594 39.082031 8.808594 39.34375 8.746094 C 39.527344 8.699219 39.714844 8.652344 39.90625 8.605469 C 40.105469 8.554688 40.308594 8.507812 40.511719 8.457031 C 40.953125 8.347656 41.398438 8.238281 41.839844 8.128906 C 42.558594 7.949219 43.277344 7.773438 43.996094 7.59375 C 44.792969 7.398438 45.589844 7.203125 46.386719 7.007812 C 48.71875 6.433594 51.046875 5.863281 53.378906 5.292969 C 53.65625 5.226562 53.65625 5.226562 53.9375 5.160156 C 54.867188 4.929688 55.800781 4.703125 56.730469 4.476562 C 57.996094 4.167969 59.257812 3.863281 60.523438 3.554688 C 61.367188 3.347656 62.214844 3.140625 63.058594 2.9375 C 65.03125 2.457031 65.03125 2.457031 67.003906 1.96875 C 67.46875 1.851562 67.9375 1.734375 68.402344 1.617188 C 68.707031 1.542969 69.011719 1.464844 69.316406 1.386719 C 71.386719 0.871094 71.386719 0.871094 72.316406 1.15625 C 72.394531 1.203125 72.472656 1.253906 72.550781 1.300781 C 72.632812 1.347656 72.710938 1.394531 72.796875 1.441406 C 73.304688 1.894531 73.613281 2.375 73.71875 3.050781 C 73.71875 3.226562 73.722656 3.40625 73.722656 3.585938 C 73.722656 3.6875 73.722656 3.785156 73.722656 3.886719 C 73.726562 4.21875 73.726562 4.550781 73.722656 4.882812 C 73.722656 5.125 73.726562 5.367188 73.726562 5.605469 C 73.730469 6.269531 73.730469 6.929688 73.726562 7.59375 C 73.726562 8.304688 73.730469 9.019531 73.730469 9.734375 C 73.734375 11.132812 73.738281 12.527344 73.734375 13.925781 C 73.734375 15.0625 73.734375 16.199219 73.738281 17.335938 C 73.738281 17.496094 73.738281 17.660156 73.738281 17.824219 C 73.738281 18.15625 73.738281 18.484375 73.738281 18.8125 C 73.742188 21.890625 73.742188 24.972656 73.738281 28.050781 C 73.738281 30.871094 73.742188 33.691406 73.746094 36.507812 C 73.753906 39.402344 73.753906 42.296875 73.753906 45.1875 C 73.753906 46.8125 73.753906 48.4375 73.757812 50.0625 C 73.761719 51.445312 73.761719 52.828125 73.757812 54.210938 C 73.757812 54.917969 73.757812 55.625 73.761719 56.328125 C 73.761719 56.976562 73.761719 57.621094 73.757812 58.269531 C 73.757812 58.5 73.757812 58.734375 73.761719 58.96875 C 73.773438 60.128906 73.78125 61.074219 72.976562 61.984375 C 72.625 62.289062 72.308594 62.417969 71.855469 62.527344 C 71.597656 62.59375 71.597656 62.59375 71.335938 62.664062 C 71.152344 62.707031 70.972656 62.75 70.78125 62.792969 C 70.5 62.867188 70.21875 62.941406 69.933594 63.015625 C 69.410156 63.148438 68.882812 63.277344 68.359375 63.40625 C 68.121094 63.464844 67.882812 63.523438 67.648438 63.582031 C 67.007812 63.738281 66.371094 63.894531 65.734375 64.050781 C 65.195312 64.183594 64.65625 64.316406 64.117188 64.453125 C 59.609375 65.5625 55.101562 66.667969 50.59375 67.765625 C 50.089844 67.886719 49.585938 68.011719 49.078125 68.132812 C 48.957031 68.164062 48.835938 68.195312 48.710938 68.222656 C 47.148438 68.605469 45.589844 68.988281 44.03125 69.382812 C 43.558594 69.5 43.085938 69.621094 42.613281 69.738281 C 41.9375 69.90625 41.265625 70.078125 40.59375 70.25 C 40.300781 70.320312 40.007812 70.394531 39.710938 70.46875 C 39.585938 70.503906 39.457031 70.535156 39.324219 70.570312 C 37.878906 70.925781 36.609375 70.816406 35.179688 70.449219 C 35.027344 70.410156 34.878906 70.375 34.722656 70.335938 C 34.226562 70.214844 33.730469 70.085938 33.230469 69.960938 C 32.875 69.875 32.519531 69.785156 32.164062 69.699219 C 31.402344 69.507812 30.640625 69.320312 29.878906 69.128906 C 28.683594 68.828125 27.488281 68.53125 26.292969 68.234375 C 25.886719 68.132812 25.480469 68.03125 25.078125 67.933594 C 24.925781 67.894531 24.925781 67.894531 24.769531 67.855469 C 24.054688 67.679688 23.335938 67.5 22.617188 67.320312 C 19.941406 66.652344 17.261719 65.992188 14.585938 65.339844 C 14.242188 65.253906 13.898438 65.171875 13.554688 65.085938 C 12.253906 64.769531 10.957031 64.453125 9.660156 64.136719 C 8.914062 63.957031 8.167969 63.773438 7.425781 63.589844 C 7.15625 63.523438 6.886719 63.460938 6.617188 63.394531 C 2.308594 62.347656 2.308594 62.347656 1.769531 61.71875 C 1.386719 61.085938 1.335938 60.777344 1.335938 60.035156 C 1.335938 59.933594 1.335938 59.835938 1.335938 59.734375 C 1.332031 59.402344 1.332031 59.066406 1.332031 58.734375 C 1.332031 58.492188 1.332031 58.253906 1.332031 58.011719 C 1.328125 57.347656 1.328125 56.683594 1.328125 56.019531 C 1.328125 55.304688 1.328125 54.589844 1.324219 53.875 C 1.324219 52.148438 1.320312 50.421875 1.320312 48.695312 C 1.320312 47.882812 1.320312 47.070312 1.316406 46.257812 C 1.316406 43.554688 1.3125 40.855469 1.3125 38.152344 C 1.3125 37.453125 1.3125 36.75 1.3125 36.050781 C 1.3125 35.875 1.3125 35.703125 1.3125 35.523438 C 1.308594 32.699219 1.304688 29.875 1.300781 27.046875 C 1.296875 24.152344 1.292969 21.253906 1.292969 18.355469 C 1.292969 16.726562 1.289062 15.097656 1.289062 13.472656 C 1.285156 12.085938 1.28125 10.699219 1.285156 9.3125 C 1.285156 8.605469 1.285156 7.898438 1.28125 7.191406 C 1.277344 6.542969 1.277344 5.894531 1.28125 5.246094 C 1.28125 5.011719 1.28125 4.777344 1.28125 4.542969 C 1.277344 4.226562 1.277344 3.90625 1.28125 3.589844 C 1.28125 3.410156 1.28125 3.234375 1.28125 3.050781 C 1.390625 2.335938 1.730469 1.859375 2.269531 1.386719 C 3.316406 0.742188 4.535156 1.089844 5.640625 1.375 Z M 6.023438 6.339844 C 5.835938 6.496094 5.835938 6.496094 5.855469 6.839844 C 5.855469 7 5.855469 7.15625 5.855469 7.316406 C 5.855469 7.5 5.855469 7.679688 5.855469 7.863281 C 5.855469 8.066406 5.855469 8.269531 5.855469 8.472656 C 5.855469 8.6875 5.855469 8.902344 5.855469 9.117188 C 5.855469 9.707031 5.855469 10.296875 5.855469 10.886719 C 5.855469 11.519531 5.855469 12.15625 5.855469 12.789062 C 5.855469 13.890625 5.855469 14.992188 5.859375 16.09375 C 5.859375 17.6875 5.859375 19.28125 5.859375 20.871094 C 5.859375 23.457031 5.859375 26.039062 5.863281 28.621094 C 5.863281 31.132812 5.863281 33.640625 5.863281 36.152344 C 5.867188 36.308594 5.867188 36.460938 5.867188 36.621094 C 5.867188 37.394531 5.867188 38.171875 5.867188 38.949219 C 5.867188 45.386719 5.871094 51.824219 5.875 58.265625 C 6.710938 58.632812 6.710938 58.632812 7.582031 58.902344 C 7.757812 58.945312 7.757812 58.945312 7.941406 58.992188 C 8.132812 59.035156 8.132812 59.035156 8.328125 59.082031 C 8.53125 59.132812 8.53125 59.132812 8.742188 59.183594 C 9.199219 59.296875 9.652344 59.40625 10.109375 59.519531 C 10.433594 59.597656 10.757812 59.679688 11.082031 59.757812 C 11.957031 59.972656 12.828125 60.183594 13.699219 60.394531 C 14.601562 60.617188 15.503906 60.835938 16.410156 61.058594 C 17.503906 61.324219 18.601562 61.59375 19.699219 61.859375 C 21.835938 62.382812 23.976562 62.910156 26.113281 63.4375 C 26.933594 63.640625 27.757812 63.84375 28.578125 64.046875 C 29.210938 64.203125 29.847656 64.359375 30.484375 64.519531 C 31.070312 64.664062 31.660156 64.8125 32.246094 64.957031 C 32.460938 65.007812 32.671875 65.058594 32.886719 65.113281 C 33.171875 65.1875 33.457031 65.253906 33.746094 65.324219 C 33.90625 65.363281 34.0625 65.40625 34.226562 65.445312 C 34.671875 65.542969 34.671875 65.542969 35.242188 65.359375 C 35.242188 48.273438 35.242188 31.1875 35.242188 13.585938 C 34.390625 13.210938 34.390625 13.210938 33.53125 12.949219 C 33.355469 12.902344 33.355469 12.902344 33.171875 12.859375 C 32.984375 12.8125 32.984375 12.8125 32.789062 12.765625 C 32.652344 12.730469 32.511719 12.699219 32.371094 12.664062 C 31.917969 12.550781 31.460938 12.441406 31.003906 12.332031 C 30.679688 12.25 30.355469 12.171875 30.03125 12.089844 C 29.160156 11.878906 28.285156 11.664062 27.414062 11.453125 C 26.511719 11.234375 25.609375 11.011719 24.707031 10.789062 C 23.246094 10.433594 21.785156 10.078125 20.328125 9.722656 C 18.550781 9.289062 16.773438 8.851562 14.996094 8.414062 C 14.171875 8.214844 13.351562 8.011719 12.53125 7.808594 C 11.894531 7.652344 11.257812 7.496094 10.621094 7.339844 C 10.03125 7.195312 9.441406 7.050781 8.851562 6.910156 C 8.640625 6.855469 8.425781 6.804688 8.214844 6.75 C 7.925781 6.679688 7.640625 6.609375 7.351562 6.539062 C 7.191406 6.5 7.03125 6.460938 6.867188 6.421875 C 6.46875 6.324219 6.46875 6.324219 6.023438 6.339844 Z M 67.792969 6.484375 C 67.648438 6.519531 67.5 6.554688 67.347656 6.59375 C 67.1875 6.632812 67.027344 6.675781 66.863281 6.714844 C 66.691406 6.757812 66.523438 6.800781 66.347656 6.84375 C 65.875 6.960938 65.40625 7.078125 64.9375 7.195312 C 64.4375 7.320312 63.9375 7.445312 63.4375 7.566406 C 62.476562 7.804688 61.515625 8.046875 60.558594 8.285156 C 59.191406 8.625 57.828125 8.964844 56.460938 9.304688 C 56.359375 9.328125 56.253906 9.355469 56.148438 9.382812 C 55.941406 9.433594 55.734375 9.484375 55.527344 9.535156 C 54.902344 9.691406 54.277344 9.847656 53.652344 10.003906 C 51.390625 10.566406 49.121094 11.125 46.855469 11.667969 C 46.632812 11.722656 46.414062 11.773438 46.195312 11.828125 C 45.25 12.054688 44.304688 12.28125 43.359375 12.507812 C 42.886719 12.621094 42.414062 12.734375 41.945312 12.847656 C 41.691406 12.90625 41.691406 12.90625 41.429688 12.96875 C 41.273438 13.003906 41.121094 13.042969 40.960938 13.082031 C 40.824219 13.113281 40.691406 13.144531 40.550781 13.175781 C 40.175781 13.277344 40.175781 13.277344 39.757812 13.585938 C 39.691406 13.96875 39.691406 13.96875 39.703125 14.429688 C 39.703125 14.613281 39.703125 14.792969 39.699219 14.980469 C 39.703125 15.179688 39.703125 15.382812 39.703125 15.585938 C 39.703125 15.800781 39.703125 16.015625 39.703125 16.226562 C 39.703125 16.816406 39.703125 17.40625 39.707031 17.996094 C 39.707031 18.632812 39.707031 19.265625 39.707031 19.902344 C 39.707031 21.003906 39.707031 22.105469 39.710938 23.207031 C 39.714844 24.796875 39.714844 26.390625 39.714844 27.980469 C 39.71875 30.5625 39.71875 33.144531 39.726562 35.726562 C 39.730469 38.238281 39.730469 40.746094 39.734375 43.253906 C 39.734375 43.410156 39.734375 43.5625 39.734375 43.722656 C 39.734375 44.5 39.734375 45.273438 39.734375 46.050781 C 39.742188 52.484375 39.75 58.921875 39.757812 65.359375 C 40.269531 65.5 40.574219 65.496094 41.089844 65.363281 C 41.3125 65.3125 41.3125 65.3125 41.535156 65.257812 C 41.699219 65.214844 41.859375 65.175781 42.023438 65.132812 C 42.195312 65.089844 42.363281 65.050781 42.539062 65.003906 C 43.007812 64.890625 43.476562 64.773438 43.945312 64.65625 C 44.449219 64.527344 44.949219 64.40625 45.449219 64.28125 C 46.410156 64.042969 47.367188 63.804688 48.328125 63.5625 C 49.691406 63.222656 51.058594 62.882812 52.425781 62.546875 C 52.527344 62.519531 52.628906 62.492188 52.734375 62.46875 C 52.945312 62.417969 53.152344 62.363281 53.359375 62.3125 C 53.984375 62.15625 54.609375 62.003906 55.230469 61.847656 C 57.496094 61.28125 59.761719 60.726562 62.03125 60.179688 C 62.25 60.125 62.472656 60.074219 62.691406 60.019531 C 63.636719 59.792969 64.582031 59.566406 65.527344 59.339844 C 66 59.230469 66.46875 59.117188 66.941406 59.003906 C 67.109375 58.964844 67.28125 58.921875 67.457031 58.882812 C 67.6875 58.824219 67.6875 58.824219 67.925781 58.769531 C 68.128906 58.71875 68.128906 58.71875 68.332031 58.671875 C 68.710938 58.574219 68.710938 58.574219 69.125 58.265625 C 69.195312 57.878906 69.195312 57.878906 69.183594 57.417969 C 69.183594 57.238281 69.183594 57.054688 69.183594 56.871094 C 69.183594 56.667969 69.183594 56.464844 69.179688 56.261719 C 69.179688 56.046875 69.179688 55.835938 69.183594 55.621094 C 69.183594 55.03125 69.179688 54.441406 69.179688 53.851562 C 69.175781 53.21875 69.175781 52.582031 69.179688 51.945312 C 69.179688 50.847656 69.175781 49.746094 69.175781 48.644531 C 69.171875 47.050781 69.167969 45.460938 69.167969 43.867188 C 69.167969 41.285156 69.164062 38.703125 69.160156 36.121094 C 69.15625 33.613281 69.152344 31.101562 69.152344 28.59375 C 69.152344 28.441406 69.152344 28.285156 69.152344 28.125 C 69.148438 27.351562 69.148438 26.574219 69.148438 25.800781 C 69.144531 19.363281 69.136719 12.925781 69.125 6.492188 C 68.617188 6.347656 68.3125 6.355469 67.792969 6.484375 Z M 67.792969 6.484375 "/>
<path style=" stroke:none;fill-rule:nonzero;fill:rgb(48.235294%,86.274511%,81.960785%);fill-opacity:1;" d="M 63.554688 43.167969 C 64.222656 43.914062 64.359375 44.371094 64.347656 45.351562 C 64.269531 46.058594 63.890625 46.453125 63.410156 46.941406 C 62.75 47.378906 62.082031 47.492188 61.316406 47.648438 C 61.152344 47.683594 60.988281 47.71875 60.820312 47.753906 C 60.28125 47.871094 59.742188 47.980469 59.207031 48.09375 C 58.832031 48.171875 58.460938 48.253906 58.089844 48.332031 C 57.324219 48.496094 56.5625 48.65625 55.796875 48.816406 C 54.730469 49.042969 53.664062 49.277344 52.597656 49.511719 C 52.121094 49.617188 51.640625 49.71875 51.164062 49.824219 C 50.859375 49.890625 50.558594 49.957031 50.257812 50.023438 C 49.835938 50.117188 49.414062 50.207031 48.996094 50.300781 C 48.8125 50.339844 48.8125 50.339844 48.628906 50.382812 C 47.601562 50.601562 46.527344 50.792969 45.566406 50.300781 C 44.886719 49.703125 44.613281 49.261719 44.523438 48.347656 C 44.53125 47.605469 44.824219 47.023438 45.332031 46.492188 C 45.964844 46.132812 46.558594 45.933594 47.265625 45.777344 C 47.414062 45.746094 47.414062 45.746094 47.566406 45.710938 C 47.894531 45.640625 48.21875 45.566406 48.546875 45.496094 C 48.777344 45.445312 49.011719 45.394531 49.242188 45.34375 C 49.855469 45.207031 50.464844 45.074219 51.078125 44.941406 C 51.683594 44.808594 52.289062 44.671875 52.898438 44.539062 C 53.957031 44.304688 55.015625 44.074219 56.078125 43.839844 C 56.726562 43.699219 57.375 43.558594 58.023438 43.410156 C 58.5 43.304688 58.976562 43.199219 59.453125 43.09375 C 59.621094 43.054688 59.789062 43.015625 59.964844 42.976562 C 62.457031 42.429688 62.457031 42.429688 63.554688 43.167969 Z M 63.554688 43.167969 "/>
<path style=" stroke:none;fill-rule:nonzero;fill:rgb(47.843137%,85.882354%,81.960785%);fill-opacity:1;" d="M 15.242188 43.011719 C 15.386719 43.042969 15.53125 43.074219 15.683594 43.109375 C 16.160156 43.210938 16.632812 43.316406 17.109375 43.421875 C 17.441406 43.496094 17.773438 43.566406 18.109375 43.640625 C 18.804688 43.792969 19.5 43.949219 20.195312 44.101562 C 21.085938 44.300781 21.976562 44.496094 22.867188 44.6875 C 23.550781 44.839844 24.238281 44.992188 24.925781 45.144531 C 25.253906 45.214844 25.582031 45.289062 25.910156 45.359375 C 26.371094 45.460938 26.828125 45.5625 27.285156 45.664062 C 27.421875 45.691406 27.554688 45.722656 27.695312 45.75 C 28.683594 45.976562 29.476562 46.273438 30.1875 47.039062 C 30.503906 47.730469 30.542969 48.308594 30.421875 49.054688 C 30.070312 49.785156 29.644531 50.214844 28.914062 50.566406 C 27.886719 50.671875 26.902344 50.503906 25.902344 50.285156 C 25.691406 50.238281 25.691406 50.238281 25.472656 50.195312 C 25.007812 50.09375 24.542969 49.996094 24.078125 49.894531 C 23.75 49.824219 23.425781 49.753906 23.097656 49.683594 C 22.417969 49.539062 21.738281 49.390625 21.054688 49.246094 C 20.1875 49.054688 19.316406 48.871094 18.445312 48.6875 C 17.773438 48.542969 17.101562 48.398438 16.429688 48.253906 C 16.105469 48.183594 15.785156 48.113281 15.464844 48.046875 C 15.015625 47.953125 14.566406 47.855469 14.117188 47.753906 C 13.988281 47.726562 13.855469 47.699219 13.71875 47.671875 C 12.5625 47.414062 11.511719 47.082031 10.84375 46.039062 C 10.625 45.378906 10.5625 44.742188 10.796875 44.085938 C 11.75 42.242188 13.519531 42.625 15.242188 43.011719 Z M 15.242188 43.011719 "/>
<path style=" stroke:none;fill-rule:nonzero;fill:rgb(48.235294%,86.274511%,81.960785%);fill-opacity:1;" d="M 63.53125 21.035156 C 64.144531 21.625 64.332031 22.085938 64.355469 22.914062 C 64.347656 23.644531 64.195312 24.042969 63.703125 24.605469 C 63.242188 25.007812 62.851562 25.152344 62.257812 25.285156 C 62.074219 25.328125 61.890625 25.367188 61.703125 25.410156 C 61.496094 25.457031 61.285156 25.5 61.078125 25.546875 C 60.859375 25.597656 60.636719 25.644531 60.414062 25.695312 C 59.886719 25.8125 59.355469 25.929688 58.824219 26.046875 C 58.078125 26.210938 57.332031 26.375 56.582031 26.542969 C 55.421875 26.800781 54.257812 27.058594 53.09375 27.316406 C 52.617188 27.417969 52.144531 27.523438 51.671875 27.628906 C 51.105469 27.753906 50.535156 27.878906 49.96875 28.003906 C 49.753906 28.050781 49.542969 28.097656 49.332031 28.144531 C 46.757812 28.71875 46.757812 28.71875 45.746094 28.347656 C 45.207031 27.992188 44.867188 27.59375 44.578125 27.019531 C 44.496094 26.257812 44.492188 25.675781 44.851562 24.992188 C 45.597656 24.117188 45.597656 24.117188 46.273438 23.960938 C 46.410156 23.925781 46.546875 23.894531 46.683594 23.863281 C 46.910156 23.8125 46.910156 23.8125 47.144531 23.757812 C 47.386719 23.703125 47.386719 23.703125 47.636719 23.644531 C 48.113281 23.535156 48.59375 23.425781 49.070312 23.320312 C 49.414062 23.242188 49.757812 23.164062 50.105469 23.085938 C 51.578125 22.75 53.050781 22.417969 54.527344 22.09375 C 55.238281 21.9375 55.949219 21.777344 56.660156 21.617188 C 57.363281 21.457031 58.0625 21.304688 58.761719 21.148438 C 59.027344 21.089844 59.289062 21.03125 59.554688 20.972656 C 59.921875 20.886719 60.289062 20.808594 60.65625 20.730469 C 60.761719 20.703125 60.867188 20.679688 60.976562 20.652344 C 61.847656 20.472656 62.789062 20.492188 63.53125 21.035156 Z M 63.53125 21.035156 "/>
<path style=" stroke:none;fill-rule:nonzero;fill:rgb(48.235294%,86.274511%,81.960785%);fill-opacity:1;" d="M 63.328125 31.960938 C 63.996094 32.566406 64.269531 33.003906 64.363281 33.914062 C 64.351562 34.65625 64.0625 35.238281 63.554688 35.773438 C 62.796875 36.21875 62.039062 36.398438 61.1875 36.582031 C 61.042969 36.613281 60.898438 36.648438 60.75 36.679688 C 60.273438 36.789062 59.796875 36.890625 59.320312 36.996094 C 58.988281 37.070312 58.65625 37.144531 58.324219 37.21875 C 57.625 37.371094 56.929688 37.527344 56.230469 37.679688 C 55.339844 37.875 54.449219 38.074219 53.558594 38.273438 C 52.871094 38.425781 52.183594 38.578125 51.496094 38.726562 C 51.167969 38.800781 50.839844 38.871094 50.511719 38.945312 C 50.050781 39.046875 49.589844 39.148438 49.128906 39.25 C 48.929688 39.296875 48.929688 39.296875 48.722656 39.339844 C 47.664062 39.566406 46.558594 39.789062 45.566406 39.28125 C 44.886719 38.683594 44.613281 38.242188 44.523438 37.332031 C 44.53125 36.582031 44.839844 36.019531 45.332031 35.472656 C 46.007812 34.976562 46.722656 34.835938 47.527344 34.664062 C 47.671875 34.628906 47.816406 34.597656 47.964844 34.5625 C 48.441406 34.457031 48.917969 34.351562 49.394531 34.25 C 49.726562 34.175781 50.058594 34.101562 50.390625 34.027344 C 51.089844 33.871094 51.785156 33.71875 52.484375 33.566406 C 53.375 33.371094 54.265625 33.171875 55.15625 32.972656 C 55.84375 32.820312 56.53125 32.667969 57.21875 32.519531 C 57.546875 32.445312 57.875 32.371094 58.203125 32.300781 C 58.664062 32.195312 59.125 32.097656 59.585938 31.996094 C 59.71875 31.964844 59.851562 31.933594 59.992188 31.902344 C 61.09375 31.667969 62.292969 31.441406 63.328125 31.960938 Z M 63.328125 31.960938 "/>
<path style=" stroke:none;fill-rule:nonzero;fill:rgb(47.843137%,85.882354%,81.960785%);fill-opacity:1;" d="M 13.484375 20.632812 C 13.621094 20.660156 13.757812 20.6875 13.898438 20.71875 C 14.125 20.765625 14.125 20.765625 14.355469 20.816406 C 14.597656 20.867188 14.597656 20.867188 14.84375 20.917969 C 15.3125 21.015625 15.78125 21.113281 16.25 21.214844 C 16.582031 21.285156 16.910156 21.355469 17.242188 21.425781 C 18.761719 21.75 20.28125 22.078125 21.804688 22.410156 C 22.472656 22.558594 23.144531 22.703125 23.816406 22.847656 C 24.335938 22.960938 24.859375 23.074219 25.382812 23.1875 C 25.628906 23.242188 25.878906 23.296875 26.125 23.347656 C 26.46875 23.421875 26.8125 23.5 27.15625 23.574219 C 27.257812 23.59375 27.355469 23.617188 27.460938 23.636719 C 28.695312 23.914062 29.53125 24.152344 30.269531 25.207031 C 30.550781 25.765625 30.488281 26.40625 30.421875 27.019531 C 30.027344 27.792969 29.585938 28.253906 28.765625 28.527344 C 27.820312 28.578125 26.980469 28.4375 26.058594 28.234375 C 25.914062 28.203125 25.769531 28.171875 25.621094 28.136719 C 25.144531 28.035156 24.667969 27.929688 24.191406 27.824219 C 23.859375 27.75 23.523438 27.675781 23.191406 27.605469 C 22.496094 27.449219 21.796875 27.296875 21.101562 27.144531 C 20.210938 26.945312 19.320312 26.75 18.425781 26.554688 C 17.738281 26.40625 17.050781 26.253906 16.367188 26.101562 C 16.035156 26.03125 15.707031 25.957031 15.378906 25.886719 C 14.917969 25.785156 14.460938 25.683594 14 25.582031 C 13.867188 25.550781 13.730469 25.523438 13.59375 25.492188 C 12.589844 25.265625 11.519531 25.007812 10.917969 24.113281 C 10.621094 23.496094 10.617188 23.015625 10.691406 22.339844 C 10.972656 21.546875 11.375 21.152344 12.046875 20.679688 C 12.570312 20.53125 12.957031 20.523438 13.484375 20.632812 Z M 13.484375 20.632812 "/>
<path style=" stroke:none;fill-rule:nonzero;fill:rgb(47.843137%,85.882354%,81.960785%);fill-opacity:1;" d="M 15.210938 31.980469 C 15.351562 32.007812 15.492188 32.039062 15.636719 32.070312 C 16.097656 32.167969 16.554688 32.269531 17.015625 32.371094 C 17.335938 32.441406 17.660156 32.507812 17.980469 32.578125 C 18.652344 32.726562 19.324219 32.871094 19.996094 33.019531 C 20.855469 33.207031 21.714844 33.394531 22.574219 33.578125 C 23.238281 33.722656 23.902344 33.867188 24.566406 34.011719 C 24.882812 34.082031 25.199219 34.148438 25.515625 34.21875 C 25.957031 34.3125 26.402344 34.410156 26.84375 34.507812 C 26.972656 34.535156 27.101562 34.5625 27.234375 34.589844 C 28.257812 34.820312 29.300781 35.09375 30.046875 35.859375 C 30.4375 36.496094 30.472656 36.996094 30.421875 37.734375 C 30.152344 38.441406 29.78125 38.902344 29.21875 39.394531 C 28.15625 39.75 27.101562 39.484375 26.042969 39.25 C 25.894531 39.21875 25.746094 39.1875 25.597656 39.152344 C 25.113281 39.050781 24.628906 38.941406 24.148438 38.835938 C 23.808594 38.761719 23.472656 38.691406 23.136719 38.617188 C 22.429688 38.464844 21.726562 38.308594 21.019531 38.152344 C 20.117188 37.953125 19.214844 37.757812 18.3125 37.5625 C 17.613281 37.410156 16.917969 37.257812 16.222656 37.105469 C 15.890625 37.035156 15.558594 36.960938 15.226562 36.890625 C 14.757812 36.789062 14.292969 36.6875 13.828125 36.582031 C 13.625 36.539062 13.625 36.539062 13.414062 36.492188 C 12.316406 36.246094 11.507812 35.980469 10.84375 35.019531 C 10.5625 34.457031 10.625 33.820312 10.691406 33.207031 C 10.945312 32.699219 10.945312 32.699219 11.296875 32.300781 C 11.449219 32.125 11.449219 32.125 11.605469 31.945312 C 12.664062 31.355469 14.082031 31.726562 15.210938 31.980469 Z M 15.210938 31.980469 "/>
</g>
</svg>
