<?xml version="1.0" encoding="UTF-8"?>
<svg xmlns="http://www.w3.org/2000/svg" xmlns:xlink="http://www.w3.org/1999/xlink" width="76px" height="75px" viewBox="0 0 75 75" version="1.1">
<g id="surface1">
<path style=" stroke:none;fill-rule:nonzero;fill:rgb(47.450981%,85.882354%,81.568629%);fill-opacity:1;" d="M 3.515625 1.640625 C 3.652344 1.636719 3.792969 1.636719 3.933594 1.636719 C 4.085938 1.636719 4.238281 1.636719 4.398438 1.636719 C 4.558594 1.636719 4.722656 1.636719 4.886719 1.636719 C 5.335938 1.632812 5.789062 1.632812 6.238281 1.632812 C 6.722656 1.632812 7.207031 1.632812 7.691406 1.628906 C 8.867188 1.628906 10.039062 1.625 11.210938 1.625 C 11.761719 1.625 12.3125 1.625 12.863281 1.621094 C 14.699219 1.621094 16.53125 1.617188 18.367188 1.617188 C 18.839844 1.617188 19.316406 1.617188 19.792969 1.617188 C 19.96875 1.617188 19.96875 1.617188 20.152344 1.617188 C 22.070312 1.617188 23.984375 1.613281 25.902344 1.605469 C 27.871094 1.601562 29.835938 1.601562 31.804688 1.601562 C 32.910156 1.597656 34.011719 1.597656 35.117188 1.59375 C 36.058594 1.59375 37 1.589844 37.941406 1.59375 C 38.421875 1.59375 38.902344 1.59375 39.382812 1.589844 C 39.902344 1.585938 40.421875 1.589844 40.941406 1.589844 C 41.171875 1.585938 41.171875 1.585938 41.402344 1.585938 C 42.238281 1.59375 42.730469 1.640625 43.363281 2.210938 C 43.996094 2.917969 44.066406 3.457031 44.066406 4.382812 C 44.066406 4.492188 44.070312 4.601562 44.070312 4.714844 C 44.070312 5.082031 44.074219 5.453125 44.074219 5.820312 C 44.074219 6.085938 44.074219 6.351562 44.078125 6.613281 C 44.082031 7.332031 44.085938 8.050781 44.085938 8.769531 C 44.089844 9.519531 44.09375 10.265625 44.097656 11.015625 C 44.105469 12.4375 44.109375 13.859375 44.117188 15.277344 C 44.121094 16.894531 44.128906 18.511719 44.136719 20.128906 C 44.152344 23.457031 44.167969 26.785156 44.183594 30.109375 C 44.386719 30.109375 44.386719 30.109375 44.59375 30.113281 C 47.890625 30.121094 51.1875 30.128906 54.488281 30.144531 C 56.082031 30.148438 57.675781 30.15625 59.273438 30.160156 C 60.664062 30.160156 62.050781 30.167969 63.441406 30.171875 C 64.179688 30.175781 64.914062 30.179688 65.652344 30.179688 C 66.34375 30.179688 67.035156 30.183594 67.730469 30.1875 C 67.984375 30.1875 68.238281 30.1875 68.492188 30.1875 C 68.839844 30.1875 69.1875 30.191406 69.535156 30.195312 C 69.632812 30.191406 69.734375 30.191406 69.839844 30.191406 C 70.570312 30.203125 71.136719 30.363281 71.679688 30.875 C 72.105469 31.441406 72.289062 31.71875 72.292969 32.425781 C 72.292969 32.566406 72.292969 32.707031 72.292969 32.851562 C 72.292969 33.085938 72.292969 33.085938 72.292969 33.320312 C 72.292969 33.484375 72.292969 33.648438 72.292969 33.816406 C 72.296875 34.273438 72.296875 34.730469 72.296875 35.1875 C 72.296875 35.675781 72.296875 36.167969 72.300781 36.660156 C 72.300781 37.847656 72.304688 39.035156 72.304688 40.222656 C 72.304688 40.78125 72.304688 41.339844 72.308594 41.898438 C 72.308594 43.753906 72.3125 45.613281 72.3125 47.46875 C 72.3125 47.953125 72.3125 48.433594 72.3125 48.914062 C 72.3125 49.035156 72.3125 49.15625 72.3125 49.277344 C 72.3125 51.21875 72.316406 53.160156 72.320312 55.105469 C 72.328125 57.097656 72.328125 59.089844 72.328125 61.082031 C 72.328125 62.199219 72.332031 63.320312 72.335938 64.4375 C 72.335938 65.390625 72.339844 66.34375 72.335938 67.296875 C 72.335938 67.785156 72.335938 68.269531 72.339844 68.757812 C 72.34375 69.285156 72.339844 69.808594 72.339844 70.335938 C 72.339844 70.566406 72.339844 70.566406 72.34375 70.804688 C 72.335938 71.648438 72.289062 72.148438 71.726562 72.789062 C 71.171875 73.285156 70.859375 73.496094 70.121094 73.5 C 69.984375 73.5 69.84375 73.5 69.703125 73.5 C 69.550781 73.5 69.398438 73.5 69.238281 73.5 C 69.078125 73.5 68.914062 73.503906 68.75 73.503906 C 68.296875 73.503906 67.847656 73.503906 67.398438 73.503906 C 66.914062 73.503906 66.429688 73.507812 65.941406 73.507812 C 64.769531 73.511719 63.597656 73.511719 62.425781 73.511719 C 61.875 73.515625 61.324219 73.515625 60.773438 73.515625 C 58.9375 73.519531 57.105469 73.519531 55.269531 73.519531 C 54.796875 73.519531 54.320312 73.519531 53.84375 73.519531 C 53.726562 73.523438 53.605469 73.523438 53.484375 73.523438 C 51.566406 73.523438 49.652344 73.527344 47.734375 73.53125 C 45.765625 73.535156 43.800781 73.539062 41.832031 73.539062 C 40.726562 73.539062 39.621094 73.539062 38.519531 73.542969 C 37.578125 73.546875 36.636719 73.546875 35.695312 73.546875 C 35.214844 73.546875 34.734375 73.546875 34.253906 73.546875 C 33.734375 73.550781 33.214844 73.550781 32.695312 73.546875 C 32.464844 73.550781 32.464844 73.550781 32.234375 73.550781 C 31.398438 73.546875 30.90625 73.496094 30.273438 72.929688 C 29.640625 72.21875 29.570312 71.683594 29.570312 70.757812 C 29.570312 70.644531 29.566406 70.535156 29.566406 70.421875 C 29.566406 70.054688 29.5625 69.683594 29.5625 69.316406 C 29.5625 69.050781 29.558594 68.789062 29.558594 68.523438 C 29.554688 67.804688 29.550781 67.089844 29.550781 66.371094 C 29.546875 65.621094 29.542969 64.871094 29.539062 64.121094 C 29.53125 62.699219 29.527344 61.28125 29.519531 59.859375 C 29.511719 58.242188 29.507812 56.625 29.5 55.007812 C 29.484375 51.679688 29.46875 48.355469 29.453125 45.027344 C 29.320312 45.027344 29.183594 45.027344 29.042969 45.027344 C 25.746094 45.019531 22.449219 45.007812 19.148438 44.996094 C 17.554688 44.988281 15.960938 44.984375 14.363281 44.980469 C 12.972656 44.976562 11.585938 44.972656 10.195312 44.964844 C 9.457031 44.960938 8.722656 44.960938 7.984375 44.957031 C 7.292969 44.957031 6.601562 44.957031 5.90625 44.949219 C 5.652344 44.949219 5.398438 44.949219 5.144531 44.949219 C 4.796875 44.949219 4.449219 44.949219 4.101562 44.945312 C 3.953125 44.945312 3.953125 44.945312 3.796875 44.945312 C 3.066406 44.9375 2.5 44.773438 1.957031 44.261719 C 1.53125 43.695312 1.347656 43.417969 1.34375 42.710938 C 1.34375 42.570312 1.34375 42.429688 1.34375 42.285156 C 1.34375 42.054688 1.34375 42.054688 1.34375 41.816406 C 1.34375 41.652344 1.34375 41.488281 1.34375 41.320312 C 1.339844 40.863281 1.339844 40.410156 1.339844 39.953125 C 1.339844 39.460938 1.339844 38.96875 1.335938 38.476562 C 1.335938 37.292969 1.332031 36.105469 1.332031 34.917969 C 1.332031 34.359375 1.332031 33.800781 1.328125 33.238281 C 1.328125 31.382812 1.324219 29.527344 1.324219 27.667969 C 1.324219 27.1875 1.324219 26.703125 1.324219 26.222656 C 1.324219 26.101562 1.324219 25.984375 1.324219 25.859375 C 1.320312 23.917969 1.320312 21.976562 1.3125 20.035156 C 1.308594 18.042969 1.308594 16.050781 1.308594 14.058594 C 1.304688 12.9375 1.304688 11.820312 1.300781 10.699219 C 1.300781 9.746094 1.296875 8.792969 1.300781 7.839844 C 1.300781 7.355469 1.300781 6.867188 1.296875 6.382812 C 1.292969 5.855469 1.296875 5.328125 1.296875 4.800781 C 1.292969 4.570312 1.292969 4.570312 1.292969 4.335938 C 1.300781 3.488281 1.347656 2.988281 1.910156 2.347656 C 2.464844 1.851562 2.777344 1.640625 3.515625 1.640625 Z M 5.863281 6.355469 C 5.851562 6.789062 5.84375 7.21875 5.847656 7.652344 C 5.847656 7.792969 5.847656 7.929688 5.84375 8.074219 C 5.84375 8.539062 5.84375 9.007812 5.847656 9.472656 C 5.847656 9.808594 5.84375 10.140625 5.84375 10.472656 C 5.84375 11.285156 5.84375 12.101562 5.84375 12.914062 C 5.84375 13.574219 5.84375 14.234375 5.84375 14.894531 C 5.84375 14.988281 5.84375 15.082031 5.84375 15.179688 C 5.84375 15.371094 5.84375 15.5625 5.84375 15.75 C 5.84375 17.542969 5.84375 19.332031 5.847656 21.121094 C 5.847656 22.65625 5.847656 24.195312 5.847656 25.734375 C 5.84375 27.515625 5.84375 29.300781 5.84375 31.082031 C 5.84375 31.273438 5.84375 31.460938 5.84375 31.652344 C 5.84375 31.746094 5.84375 31.839844 5.84375 31.933594 C 5.84375 32.59375 5.84375 33.253906 5.84375 33.914062 C 5.84375 34.804688 5.84375 35.691406 5.847656 36.578125 C 5.847656 36.90625 5.847656 37.234375 5.84375 37.558594 C 5.84375 38.003906 5.84375 38.449219 5.847656 38.894531 C 5.847656 39.023438 5.847656 39.15625 5.84375 39.289062 C 5.789062 39.855469 5.789062 39.855469 6 40.332031 C 6.429688 40.34375 6.855469 40.351562 7.285156 40.347656 C 7.421875 40.347656 7.558594 40.347656 7.699219 40.351562 C 8.160156 40.351562 8.621094 40.351562 9.082031 40.347656 C 9.410156 40.347656 9.738281 40.351562 10.066406 40.351562 C 10.871094 40.351562 11.671875 40.351562 12.476562 40.351562 C 13.128906 40.351562 13.78125 40.351562 14.433594 40.351562 C 14.527344 40.351562 14.617188 40.351562 14.714844 40.351562 C 14.902344 40.351562 15.089844 40.351562 15.277344 40.351562 C 17.046875 40.351562 18.8125 40.351562 20.578125 40.347656 C 22.097656 40.347656 23.613281 40.347656 25.132812 40.347656 C 26.894531 40.351562 28.652344 40.351562 30.414062 40.351562 C 30.601562 40.351562 30.789062 40.351562 30.976562 40.351562 C 31.070312 40.351562 31.160156 40.351562 31.257812 40.351562 C 31.90625 40.351562 32.558594 40.351562 33.210938 40.351562 C 34.089844 40.351562 34.964844 40.351562 35.839844 40.351562 C 36.164062 40.347656 36.488281 40.347656 36.808594 40.351562 C 37.25 40.351562 37.6875 40.351562 38.125 40.347656 C 38.253906 40.347656 38.382812 40.351562 38.519531 40.351562 C 39.074219 40.40625 39.074219 40.40625 39.546875 40.195312 C 39.558594 39.757812 39.5625 39.328125 39.5625 38.894531 C 39.5625 38.753906 39.5625 38.617188 39.5625 38.472656 C 39.5625 38.007812 39.5625 37.539062 39.5625 37.074219 C 39.5625 36.742188 39.5625 36.40625 39.5625 36.074219 C 39.5625 35.261719 39.5625 34.449219 39.5625 33.632812 C 39.5625 32.972656 39.5625 32.3125 39.5625 31.652344 C 39.5625 31.511719 39.5625 31.511719 39.5625 31.367188 C 39.5625 31.175781 39.5625 30.984375 39.5625 30.796875 C 39.5625 29.003906 39.5625 27.214844 39.5625 25.425781 C 39.5625 23.890625 39.5625 22.351562 39.5625 20.8125 C 39.5625 19.03125 39.5625 17.25 39.5625 15.464844 C 39.5625 15.273438 39.5625 15.085938 39.5625 14.894531 C 39.5625 14.800781 39.5625 14.707031 39.5625 14.613281 C 39.5625 13.953125 39.5625 13.292969 39.5625 12.632812 C 39.566406 11.742188 39.5625 10.855469 39.5625 9.96875 C 39.5625 9.640625 39.5625 9.3125 39.5625 8.988281 C 39.5625 8.542969 39.5625 8.097656 39.5625 7.652344 C 39.5625 7.523438 39.5625 7.390625 39.5625 7.257812 C 39.617188 6.691406 39.617188 6.691406 39.410156 6.214844 C 38.980469 6.203125 38.554688 6.195312 38.125 6.199219 C 37.921875 6.199219 37.921875 6.199219 37.710938 6.199219 C 37.25 6.195312 36.789062 6.195312 36.328125 6.199219 C 36 6.199219 35.671875 6.195312 35.34375 6.195312 C 34.539062 6.195312 33.734375 6.195312 32.933594 6.195312 C 32.28125 6.195312 31.628906 6.195312 30.976562 6.195312 C 30.882812 6.195312 30.789062 6.195312 30.695312 6.195312 C 30.507812 6.195312 30.320312 6.195312 30.128906 6.195312 C 28.363281 6.195312 26.597656 6.195312 24.828125 6.199219 C 23.3125 6.199219 21.792969 6.199219 20.277344 6.199219 C 18.515625 6.195312 16.753906 6.195312 14.996094 6.195312 C 14.808594 6.195312 14.621094 6.195312 14.433594 6.195312 C 14.339844 6.195312 14.25 6.195312 14.152344 6.195312 C 13.5 6.195312 12.847656 6.195312 12.199219 6.195312 C 11.320312 6.195312 10.445312 6.195312 9.566406 6.199219 C 9.246094 6.199219 8.921875 6.199219 8.597656 6.195312 C 8.160156 6.195312 7.722656 6.195312 7.285156 6.199219 C 7.089844 6.199219 7.089844 6.199219 6.890625 6.195312 C 6.332031 6.140625 6.332031 6.140625 5.863281 6.355469 Z M 44.046875 34.945312 C 44.03125 35.199219 44.027344 35.453125 44.023438 35.707031 C 44.023438 35.953125 44.023438 35.953125 44.019531 36.203125 C 44.019531 36.378906 44.019531 36.558594 44.015625 36.742188 C 44.015625 37.019531 44.011719 37.296875 44.007812 37.574219 C 44 38.261719 43.996094 38.949219 43.992188 39.636719 C 43.988281 40.113281 43.984375 40.589844 43.976562 41.070312 C 43.972656 41.339844 43.972656 41.609375 43.972656 41.878906 C 43.96875 42.125 43.96875 42.125 43.964844 42.378906 C 43.964844 42.523438 43.964844 42.667969 43.960938 42.820312 C 43.875 43.484375 43.640625 43.933594 43.152344 44.378906 C 42.640625 44.738281 42.371094 44.769531 41.753906 44.777344 C 41.585938 44.78125 41.421875 44.78125 41.25 44.785156 C 41.160156 44.785156 41.070312 44.785156 40.980469 44.789062 C 40.703125 44.789062 40.425781 44.792969 40.148438 44.796875 C 39.457031 44.808594 38.765625 44.816406 38.078125 44.824219 C 37.492188 44.832031 36.910156 44.839844 36.328125 44.847656 C 36.054688 44.851562 35.777344 44.851562 35.503906 44.855469 C 35.253906 44.859375 35.253906 44.859375 35.003906 44.863281 C 34.855469 44.863281 34.707031 44.867188 34.558594 44.867188 C 34.234375 44.851562 34.234375 44.851562 34.089844 45.027344 C 34.078125 45.332031 34.074219 45.640625 34.074219 45.945312 C 34.074219 46.042969 34.074219 46.140625 34.074219 46.238281 C 34.074219 46.566406 34.074219 46.894531 34.074219 47.222656 C 34.074219 47.457031 34.074219 47.691406 34.074219 47.921875 C 34.070312 48.558594 34.070312 49.199219 34.074219 49.835938 C 34.074219 50.5 34.074219 51.164062 34.074219 51.828125 C 34.070312 52.945312 34.074219 54.0625 34.074219 55.179688 C 34.074219 56.472656 34.074219 57.765625 34.074219 59.0625 C 34.070312 60.167969 34.070312 61.277344 34.074219 62.386719 C 34.074219 63.046875 34.074219 63.710938 34.074219 64.375 C 34.070312 64.996094 34.070312 65.621094 34.074219 66.242188 C 34.074219 66.472656 34.074219 66.703125 34.074219 66.933594 C 34.074219 67.242188 34.074219 67.554688 34.074219 67.867188 C 34.074219 68.042969 34.074219 68.214844 34.074219 68.398438 C 34.046875 68.769531 34.046875 68.769531 34.226562 68.921875 C 34.65625 68.9375 35.082031 68.941406 35.511719 68.941406 C 35.648438 68.941406 35.785156 68.941406 35.925781 68.941406 C 36.386719 68.941406 36.847656 68.941406 37.308594 68.941406 C 37.636719 68.941406 37.964844 68.941406 38.292969 68.941406 C 39.097656 68.941406 39.898438 68.941406 40.703125 68.941406 C 41.355469 68.941406 42.007812 68.941406 42.660156 68.941406 C 42.753906 68.941406 42.84375 68.941406 42.941406 68.941406 C 43.128906 68.941406 43.316406 68.941406 43.503906 68.941406 C 45.273438 68.941406 47.039062 68.941406 48.804688 68.941406 C 50.324219 68.941406 51.84375 68.941406 53.359375 68.941406 C 55.121094 68.941406 56.878906 68.941406 58.640625 68.941406 C 58.828125 68.941406 59.015625 68.941406 59.203125 68.941406 C 59.296875 68.941406 59.386719 68.941406 59.484375 68.941406 C 60.136719 68.941406 60.785156 68.941406 61.4375 68.941406 C 62.316406 68.941406 63.191406 68.941406 64.070312 68.941406 C 64.390625 68.941406 64.714844 68.941406 65.035156 68.941406 C 65.476562 68.941406 65.914062 68.941406 66.351562 68.941406 C 66.480469 68.941406 66.613281 68.941406 66.746094 68.941406 C 67.304688 68.996094 67.304688 68.996094 67.773438 68.785156 C 67.785156 68.351562 67.792969 67.917969 67.789062 67.484375 C 67.789062 67.347656 67.789062 67.207031 67.789062 67.066406 C 67.792969 66.597656 67.789062 66.132812 67.789062 65.664062 C 67.789062 65.332031 67.789062 65 67.792969 64.664062 C 67.792969 63.851562 67.792969 63.039062 67.792969 62.226562 C 67.789062 61.5625 67.789062 60.902344 67.789062 60.242188 C 67.789062 60.101562 67.789062 60.101562 67.792969 59.957031 C 67.792969 59.769531 67.792969 59.578125 67.792969 59.386719 C 67.792969 57.597656 67.792969 55.808594 67.789062 54.015625 C 67.789062 52.480469 67.789062 50.941406 67.789062 49.40625 C 67.792969 47.621094 67.792969 45.839844 67.792969 44.054688 C 67.792969 43.867188 67.792969 43.675781 67.789062 43.484375 C 67.789062 43.394531 67.789062 43.300781 67.789062 43.203125 C 67.789062 42.542969 67.789062 41.882812 67.792969 41.222656 C 67.792969 40.335938 67.792969 39.445312 67.789062 38.558594 C 67.789062 38.230469 67.789062 37.90625 67.789062 37.578125 C 67.792969 37.132812 67.789062 36.6875 67.789062 36.246094 C 67.789062 36.113281 67.789062 35.984375 67.789062 35.847656 C 67.847656 35.28125 67.847656 35.28125 67.636719 34.804688 C 67.335938 34.792969 67.03125 34.789062 66.730469 34.789062 C 66.585938 34.789062 66.585938 34.789062 66.441406 34.789062 C 66.117188 34.789062 65.792969 34.789062 65.46875 34.789062 C 65.238281 34.789062 65.007812 34.789062 64.777344 34.789062 C 64.148438 34.789062 63.519531 34.789062 62.890625 34.789062 C 62.234375 34.789062 61.578125 34.789062 60.921875 34.789062 C 59.816406 34.789062 58.714844 34.789062 57.613281 34.789062 C 56.335938 34.789062 55.058594 34.789062 53.78125 34.789062 C 52.6875 34.789062 51.59375 34.789062 50.5 34.789062 C 49.84375 34.789062 49.191406 34.789062 48.535156 34.789062 C 47.921875 34.789062 47.304688 34.789062 46.691406 34.789062 C 46.464844 34.789062 46.238281 34.789062 46.011719 34.789062 C 45.703125 34.789062 45.394531 34.789062 45.085938 34.789062 C 44.914062 34.789062 44.742188 34.789062 44.566406 34.789062 C 44.195312 34.761719 44.195312 34.761719 44.046875 34.945312 Z M 44.046875 34.945312 "/>
<path style=" stroke:none;fill-rule:nonzero;fill:rgb(47.843137%,85.882354%,81.960785%);fill-opacity:1;" d="M 23.890625 9.695312 C 24.605469 10.160156 24.976562 10.539062 25.171875 11.394531 C 25.285156 12.105469 25.292969 12.820312 25.3125 13.535156 C 25.316406 13.695312 25.324219 13.855469 25.328125 14.019531 C 25.339844 14.410156 25.351562 14.800781 25.363281 15.195312 C 25.453125 15.195312 25.542969 15.195312 25.636719 15.195312 C 26.574219 15.199219 27.511719 15.210938 28.449219 15.222656 C 28.800781 15.226562 29.148438 15.230469 29.5 15.230469 C 30.003906 15.234375 30.507812 15.238281 31.011719 15.246094 C 31.242188 15.246094 31.242188 15.246094 31.480469 15.246094 C 32.5625 15.269531 33.339844 15.414062 34.140625 16.203125 C 34.59375 16.960938 34.675781 17.742188 34.671875 18.613281 C 34.671875 18.765625 34.671875 18.765625 34.671875 18.921875 C 34.675781 19.257812 34.671875 19.59375 34.671875 19.929688 C 34.671875 20.164062 34.671875 20.398438 34.671875 20.632812 C 34.671875 21.125 34.671875 21.613281 34.671875 22.105469 C 34.671875 22.734375 34.671875 23.359375 34.671875 23.988281 C 34.675781 24.472656 34.671875 24.957031 34.671875 25.441406 C 34.671875 25.671875 34.671875 25.902344 34.671875 26.132812 C 34.675781 26.457031 34.671875 26.78125 34.671875 27.105469 C 34.671875 27.199219 34.671875 27.296875 34.671875 27.390625 C 34.664062 28.355469 34.488281 29.132812 33.816406 29.835938 C 33.292969 30.238281 32.839844 30.363281 32.183594 30.386719 C 31.507812 30.265625 31.0625 30.074219 30.5625 29.59375 C 30.273438 29.144531 30.273438 29.144531 29.863281 28.175781 C 28.378906 28.175781 26.894531 28.175781 25.363281 28.175781 C 25.363281 28.683594 25.359375 29.1875 25.359375 29.710938 C 25.355469 30.199219 25.347656 30.691406 25.34375 31.183594 C 25.339844 31.527344 25.335938 31.867188 25.335938 32.207031 C 25.335938 32.699219 25.332031 33.1875 25.324219 33.679688 C 25.324219 33.832031 25.324219 33.984375 25.324219 34.140625 C 25.308594 35.089844 25.15625 35.730469 24.546875 36.464844 C 23.945312 37.019531 23.355469 37.066406 22.570312 37.054688 C 21.894531 36.980469 21.53125 36.601562 21.09375 36.109375 C 20.757812 35.617188 20.710938 35.238281 20.699219 34.652344 C 20.695312 34.507812 20.695312 34.363281 20.691406 34.21875 C 20.6875 34.0625 20.6875 33.90625 20.683594 33.746094 C 20.679688 33.589844 20.679688 33.429688 20.675781 33.265625 C 20.667969 32.757812 20.660156 32.25 20.652344 31.742188 C 20.644531 31.398438 20.640625 31.054688 20.632812 30.710938 C 20.617188 29.867188 20.605469 29.019531 20.589844 28.175781 C 19.0625 28.175781 17.53125 28.175781 15.953125 28.175781 C 15.820312 28.542969 15.683594 28.90625 15.546875 29.28125 C 15.128906 29.769531 14.742188 30.210938 14.085938 30.296875 C 12.640625 30.3125 12.640625 30.3125 12 29.695312 C 11.417969 28.917969 11.296875 28.347656 11.296875 27.394531 C 11.296875 27.285156 11.292969 27.179688 11.292969 27.066406 C 11.292969 26.710938 11.292969 26.355469 11.289062 26 C 11.289062 25.75 11.289062 25.503906 11.289062 25.253906 C 11.285156 24.734375 11.285156 24.214844 11.285156 23.695312 C 11.285156 23.03125 11.28125 22.363281 11.277344 21.699219 C 11.273438 21.1875 11.273438 20.675781 11.273438 20.164062 C 11.273438 19.917969 11.273438 19.671875 11.269531 19.425781 C 11.269531 19.082031 11.269531 18.738281 11.269531 18.394531 C 11.269531 18.292969 11.265625 18.195312 11.265625 18.089844 C 11.273438 17.207031 11.484375 16.589844 12.050781 15.910156 C 12.621094 15.429688 13.109375 15.296875 13.84375 15.289062 C 13.992188 15.285156 14.140625 15.28125 14.289062 15.277344 C 14.449219 15.277344 14.605469 15.277344 14.769531 15.273438 C 15.011719 15.269531 15.011719 15.269531 15.261719 15.265625 C 15.777344 15.257812 16.296875 15.25 16.816406 15.246094 C 17.167969 15.238281 17.519531 15.234375 17.871094 15.230469 C 18.730469 15.214844 19.59375 15.203125 20.453125 15.195312 C 20.457031 15.089844 20.460938 14.984375 20.460938 14.878906 C 20.476562 14.40625 20.492188 13.933594 20.503906 13.457031 C 20.511719 13.296875 20.515625 13.132812 20.519531 12.964844 C 20.585938 10.96875 20.585938 10.96875 21.113281 10.335938 C 21.207031 10.257812 21.304688 10.179688 21.402344 10.101562 C 21.496094 10.019531 21.589844 9.941406 21.683594 9.859375 C 22.359375 9.382812 23.148438 9.414062 23.890625 9.695312 Z M 15.953125 20.027344 C 15.941406 20.273438 15.9375 20.515625 15.9375 20.761719 C 15.9375 20.910156 15.9375 21.058594 15.9375 21.210938 C 15.9375 21.367188 15.9375 21.523438 15.9375 21.683594 C 15.9375 21.839844 15.9375 21.996094 15.9375 22.160156 C 15.9375 22.308594 15.9375 22.457031 15.9375 22.609375 C 15.9375 22.746094 15.9375 22.882812 15.9375 23.023438 C 15.917969 23.335938 15.917969 23.335938 16.089844 23.480469 C 16.421875 23.496094 16.75 23.5 17.082031 23.5 C 17.183594 23.5 17.28125 23.5 17.386719 23.5 C 17.59375 23.5 17.804688 23.5 18.015625 23.5 C 18.339844 23.496094 18.664062 23.5 18.984375 23.5 C 19.191406 23.5 19.394531 23.5 19.597656 23.5 C 19.695312 23.5 19.792969 23.5 19.894531 23.5 C 20.347656 23.539062 20.347656 23.539062 20.726562 23.34375 C 20.742188 23.097656 20.746094 22.851562 20.746094 22.609375 C 20.746094 22.460938 20.746094 22.3125 20.746094 22.160156 C 20.746094 21.925781 20.746094 21.925781 20.746094 21.683594 C 20.746094 21.449219 20.746094 21.449219 20.746094 21.210938 C 20.746094 20.988281 20.746094 20.988281 20.746094 20.761719 C 20.746094 20.554688 20.746094 20.554688 20.746094 20.34375 C 20.761719 20.03125 20.761719 20.03125 20.589844 19.890625 C 20.257812 19.875 19.929688 19.871094 19.597656 19.871094 C 19.5 19.871094 19.398438 19.871094 19.296875 19.871094 C 19.085938 19.871094 18.875 19.871094 18.664062 19.871094 C 18.34375 19.871094 18.019531 19.871094 17.695312 19.871094 C 17.492188 19.871094 17.289062 19.871094 17.082031 19.871094 C 16.988281 19.871094 16.890625 19.871094 16.789062 19.871094 C 16.332031 19.832031 16.332031 19.832031 15.953125 20.027344 Z M 25.226562 20.027344 C 25.214844 20.273438 25.210938 20.515625 25.210938 20.761719 C 25.210938 20.910156 25.207031 21.058594 25.207031 21.210938 C 25.210938 21.367188 25.210938 21.523438 25.210938 21.683594 C 25.210938 21.839844 25.210938 21.996094 25.207031 22.160156 C 25.207031 22.308594 25.207031 22.457031 25.210938 22.609375 C 25.210938 22.746094 25.210938 22.882812 25.210938 23.023438 C 25.191406 23.335938 25.191406 23.335938 25.363281 23.480469 C 25.695312 23.496094 26.023438 23.5 26.355469 23.5 C 26.457031 23.5 26.554688 23.5 26.65625 23.5 C 26.867188 23.5 27.078125 23.5 27.289062 23.5 C 27.613281 23.496094 27.933594 23.5 28.257812 23.5 C 28.460938 23.5 28.667969 23.5 28.871094 23.5 C 28.96875 23.5 29.066406 23.5 29.164062 23.5 C 29.621094 23.539062 29.621094 23.539062 30 23.34375 C 30.011719 23.097656 30.019531 22.851562 30.019531 22.609375 C 30.019531 22.460938 30.019531 22.3125 30.019531 22.160156 C 30.019531 21.925781 30.019531 21.925781 30.015625 21.683594 C 30.019531 21.449219 30.019531 21.449219 30.019531 21.210938 C 30.019531 20.988281 30.019531 20.988281 30.019531 20.761719 C 30.019531 20.554688 30.019531 20.554688 30.019531 20.34375 C 30.035156 20.03125 30.035156 20.03125 29.863281 19.890625 C 29.53125 19.875 29.203125 19.871094 28.871094 19.871094 C 28.769531 19.871094 28.671875 19.871094 28.570312 19.871094 C 28.359375 19.871094 28.148438 19.871094 27.9375 19.871094 C 27.613281 19.871094 27.292969 19.871094 26.96875 19.871094 C 26.765625 19.871094 26.558594 19.871094 26.355469 19.871094 C 26.257812 19.871094 26.160156 19.871094 26.0625 19.871094 C 25.605469 19.832031 25.605469 19.832031 25.226562 20.027344 Z M 25.226562 20.027344 "/>
<path style=" stroke:none;fill-rule:nonzero;fill:rgb(47.843137%,85.882354%,81.960785%);fill-opacity:1;" d="M 52.5 40.195312 C 53.660156 40.769531 54.039062 41.777344 54.484375 42.929688 C 54.550781 43.089844 54.613281 43.25 54.679688 43.414062 C 54.867188 43.890625 55.050781 44.363281 55.234375 44.839844 C 55.371094 45.183594 55.503906 45.527344 55.640625 45.871094 C 56.175781 47.238281 56.710938 48.605469 57.242188 49.972656 C 57.738281 51.242188 58.234375 52.507812 58.730469 53.773438 C 58.859375 54.105469 58.988281 54.433594 59.117188 54.765625 C 59.304688 55.242188 59.492188 55.722656 59.679688 56.199219 C 60.011719 57.046875 60.34375 57.898438 60.675781 58.746094 C 60.808594 59.09375 60.945312 59.4375 61.082031 59.785156 C 61.15625 59.980469 61.234375 60.175781 61.308594 60.371094 C 61.375 60.535156 61.4375 60.699219 61.503906 60.867188 C 61.695312 61.53125 61.714844 62.070312 61.484375 62.722656 C 61.058594 63.382812 60.492188 63.902344 59.726562 64.089844 C 58.917969 64.0625 58.457031 63.929688 57.816406 63.398438 C 57.375 62.898438 57.128906 62.421875 56.890625 61.792969 C 56.832031 61.636719 56.773438 61.484375 56.710938 61.324219 C 56.636719 61.128906 56.5625 60.933594 56.488281 60.730469 C 56.253906 60.105469 56.015625 59.484375 55.773438 58.839844 C 53.207031 58.839844 50.644531 58.839844 48 58.839844 C 47.535156 59.878906 47.105469 60.894531 46.730469 61.960938 C 46.445312 62.738281 46.117188 63.367188 45.425781 63.855469 C 44.648438 64.15625 44.003906 64.101562 43.226562 63.8125 C 42.605469 63.457031 42.238281 62.96875 42 62.292969 C 41.878906 61.300781 42.273438 60.476562 42.628906 59.566406 C 42.699219 59.386719 42.769531 59.207031 42.835938 59.027344 C 43.054688 58.457031 43.277344 57.890625 43.5 57.320312 C 43.535156 57.230469 43.570312 57.144531 43.605469 57.050781 C 43.929688 56.222656 44.253906 55.394531 44.585938 54.570312 C 45.121094 53.214844 45.65625 51.859375 46.183594 50.503906 C 46.21875 50.417969 46.253906 50.328125 46.289062 50.238281 C 46.601562 49.445312 46.910156 48.648438 47.222656 47.851562 C 47.601562 46.878906 47.984375 45.902344 48.367188 44.929688 C 48.542969 44.484375 48.714844 44.039062 48.886719 43.589844 C 48.992188 43.316406 49.097656 43.046875 49.203125 42.773438 C 49.25 42.652344 49.296875 42.527344 49.34375 42.402344 C 49.960938 40.832031 50.761719 39.988281 52.5 40.195312 Z M 51.683594 48.894531 C 51.429688 49.535156 51.175781 50.171875 50.925781 50.8125 C 50.839844 51.03125 50.753906 51.246094 50.667969 51.464844 C 50.542969 51.777344 50.417969 52.089844 50.296875 52.402344 C 50.257812 52.5 50.21875 52.597656 50.179688 52.695312 C 49.996094 53.167969 49.910156 53.488281 49.910156 54.003906 C 51.167969 54.003906 52.429688 54.003906 53.726562 54.003906 C 53.914062 53.707031 53.914062 53.707031 53.71875 53.285156 C 53.644531 53.09375 53.570312 52.902344 53.492188 52.714844 C 53.453125 52.613281 53.414062 52.515625 53.375 52.410156 C 53.25 52.089844 53.121094 51.769531 52.996094 51.449219 C 52.910156 51.234375 52.824219 51.019531 52.738281 50.800781 C 52.375 49.835938 52.375 49.835938 51.953125 48.894531 C 51.863281 48.894531 51.773438 48.894531 51.683594 48.894531 Z M 51.683594 48.894531 "/>
<path style=" stroke:none;fill-rule:nonzero;fill:rgb(47.843137%,85.882354%,81.960785%);fill-opacity:1;" d="M 58.554688 9.414062 C 58.71875 9.5 58.882812 9.582031 59.046875 9.667969 C 59.257812 9.777344 59.257812 9.777344 59.476562 9.886719 C 62.589844 11.59375 64.949219 14.632812 66.035156 18.023438 C 66.464844 19.554688 67.09375 21.945312 66.273438 23.445312 C 65.753906 24.117188 65.109375 24.398438 64.296875 24.515625 C 63.472656 24.398438 62.914062 24.132812 62.394531 23.472656 C 62.109375 22.929688 62.023438 22.480469 61.964844 21.871094 C 61.71875 19.3125 60.875 17.164062 59.046875 15.332031 C 58.972656 15.253906 58.902344 15.179688 58.828125 15.101562 C 57.34375 13.664062 55.34375 13.058594 53.359375 12.855469 C 52.507812 12.765625 51.847656 12.664062 51.136719 12.15625 C 50.566406 11.429688 50.378906 10.867188 50.453125 9.945312 C 50.703125 9.214844 51.03125 8.710938 51.683594 8.289062 C 53.792969 7.574219 56.640625 8.472656 58.554688 9.414062 Z M 58.554688 9.414062 "/>
<path style=" stroke:none;fill-rule:nonzero;fill:rgb(47.843137%,85.882354%,81.960785%);fill-opacity:1;" d="M 10.277344 51.199219 C 11.191406 52.015625 11.4375 52.785156 11.539062 54.003906 C 11.738281 56.359375 12.738281 58.695312 14.535156 60.25 C 16.09375 61.496094 17.804688 62.277344 19.785156 62.496094 C 19.882812 62.507812 19.980469 62.519531 20.078125 62.53125 C 20.355469 62.558594 20.632812 62.582031 20.910156 62.605469 C 21.769531 62.777344 22.273438 63.242188 22.773438 63.949219 C 23.054688 64.523438 23.011719 65.292969 22.816406 65.894531 C 22.507812 66.492188 22.136719 66.832031 21.546875 67.128906 C 18.808594 67.761719 15.519531 66.484375 13.226562 65.054688 C 10.101562 62.9375 7.878906 59.832031 7.089844 56.078125 C 6.542969 52.925781 6.542969 52.925781 7.253906 51.804688 C 8.027344 50.859375 9.203125 50.65625 10.277344 51.199219 Z M 10.277344 51.199219 "/>
</g>
</svg>
