<?xml version="1.0" encoding="UTF-8"?>
<svg xmlns="http://www.w3.org/2000/svg" xmlns:xlink="http://www.w3.org/1999/xlink" width="72px" height="75px" viewBox="0 0 72 75" version="1.1">
<g id="surface1">
<path style=" stroke:none;fill-rule:nonzero;fill:rgb(47.450981%,85.882354%,81.568629%);fill-opacity:1;" d="M 3.839844 1.597656 C 4.011719 1.59375 4.011719 1.59375 4.183594 1.59375 C 4.5625 1.59375 4.945312 1.59375 5.324219 1.59375 C 5.597656 1.59375 5.871094 1.59375 6.148438 1.59375 C 6.902344 1.589844 7.660156 1.589844 8.414062 1.59375 C 9.230469 1.59375 10.042969 1.589844 10.859375 1.589844 C 12.453125 1.585938 14.050781 1.585938 15.644531 1.585938 C 16.941406 1.589844 18.238281 1.589844 19.539062 1.585938 C 19.722656 1.585938 19.90625 1.585938 20.097656 1.585938 C 20.46875 1.585938 20.84375 1.585938 21.21875 1.585938 C 24.734375 1.585938 28.25 1.585938 31.765625 1.585938 C 34.980469 1.589844 38.199219 1.585938 41.417969 1.582031 C 44.71875 1.578125 48.019531 1.578125 51.324219 1.578125 C 53.175781 1.578125 55.03125 1.578125 56.886719 1.574219 C 58.464844 1.574219 60.042969 1.574219 61.621094 1.578125 C 62.429688 1.578125 63.234375 1.578125 64.039062 1.574219 C 64.777344 1.574219 65.515625 1.574219 66.25 1.578125 C 66.519531 1.578125 66.785156 1.578125 67.050781 1.574219 C 67.414062 1.574219 67.777344 1.574219 68.140625 1.578125 C 68.296875 1.574219 68.296875 1.574219 68.457031 1.574219 C 69.199219 1.585938 69.617188 1.796875 70.191406 2.253906 C 70.792969 2.9375 70.816406 3.558594 70.816406 4.433594 C 70.816406 4.550781 70.816406 4.667969 70.816406 4.785156 C 70.816406 5.179688 70.816406 5.574219 70.816406 5.964844 C 70.820312 6.25 70.820312 6.53125 70.820312 6.816406 C 70.820312 7.597656 70.824219 8.378906 70.824219 9.160156 C 70.824219 10.003906 70.824219 10.84375 70.828125 11.6875 C 70.832031 13.722656 70.832031 15.753906 70.835938 17.789062 C 70.835938 18.363281 70.835938 18.9375 70.835938 19.511719 C 70.839844 23.078125 70.84375 26.640625 70.847656 30.207031 C 70.847656 31.035156 70.847656 31.859375 70.847656 32.683594 C 70.847656 32.789062 70.847656 32.890625 70.847656 32.996094 C 70.851562 36.324219 70.855469 39.652344 70.859375 42.976562 C 70.867188 46.496094 70.871094 50.011719 70.871094 53.53125 C 70.871094 55.449219 70.875 57.363281 70.878906 59.28125 C 70.882812 60.914062 70.886719 62.546875 70.882812 64.179688 C 70.882812 65.015625 70.882812 65.847656 70.886719 66.679688 C 70.890625 67.445312 70.890625 68.207031 70.886719 68.96875 C 70.886719 69.246094 70.886719 69.519531 70.890625 69.796875 C 70.910156 72.28125 70.910156 72.28125 70.277344 73.136719 C 69.605469 73.738281 69.042969 73.863281 68.160156 73.855469 C 67.988281 73.855469 67.988281 73.855469 67.816406 73.855469 C 67.4375 73.859375 67.054688 73.855469 66.675781 73.855469 C 66.402344 73.855469 66.128906 73.855469 65.851562 73.859375 C 65.097656 73.859375 64.339844 73.859375 63.585938 73.859375 C 62.769531 73.859375 61.957031 73.859375 61.140625 73.863281 C 59.546875 73.863281 57.949219 73.863281 56.355469 73.863281 C 55.058594 73.863281 53.761719 73.863281 52.460938 73.863281 C 52.277344 73.863281 52.09375 73.863281 51.902344 73.863281 C 51.53125 73.863281 51.15625 73.863281 50.78125 73.863281 C 47.265625 73.867188 43.75 73.867188 40.234375 73.863281 C 37.019531 73.863281 33.800781 73.863281 30.582031 73.867188 C 27.28125 73.871094 23.980469 73.875 20.675781 73.871094 C 18.824219 73.871094 16.96875 73.871094 15.113281 73.875 C 13.535156 73.878906 11.957031 73.878906 10.378906 73.875 C 9.570312 73.875 8.765625 73.871094 7.960938 73.875 C 7.222656 73.878906 6.484375 73.875 5.75 73.875 C 5.480469 73.875 5.214844 73.875 4.949219 73.875 C 4.585938 73.878906 4.222656 73.875 3.859375 73.871094 C 3.757812 73.875 3.652344 73.875 3.542969 73.878906 C 2.800781 73.867188 2.382812 73.652344 1.808594 73.195312 C 1.207031 72.515625 1.183594 71.890625 1.183594 71.015625 C 1.183594 70.902344 1.183594 70.785156 1.183594 70.664062 C 1.183594 70.269531 1.183594 69.878906 1.183594 69.484375 C 1.179688 69.203125 1.179688 68.917969 1.179688 68.632812 C 1.179688 67.851562 1.175781 67.070312 1.175781 66.289062 C 1.175781 65.449219 1.175781 64.605469 1.171875 63.765625 C 1.167969 61.730469 1.167969 59.695312 1.164062 57.660156 C 1.164062 57.085938 1.164062 56.511719 1.164062 55.9375 C 1.160156 52.375 1.15625 48.808594 1.152344 45.242188 C 1.152344 44.417969 1.152344 43.589844 1.152344 42.765625 C 1.152344 42.664062 1.152344 42.558594 1.152344 42.453125 C 1.148438 39.128906 1.144531 35.800781 1.140625 32.472656 C 1.132812 28.957031 1.128906 25.4375 1.128906 21.921875 C 1.128906 20.003906 1.125 18.085938 1.121094 16.167969 C 1.117188 14.535156 1.113281 12.902344 1.117188 11.269531 C 1.117188 10.4375 1.117188 9.605469 1.113281 8.769531 C 1.109375 8.007812 1.109375 7.246094 1.113281 6.480469 C 1.113281 6.207031 1.113281 5.929688 1.109375 5.652344 C 1.089844 3.167969 1.089844 3.167969 1.722656 2.3125 C 2.394531 1.714844 2.957031 1.585938 3.839844 1.597656 Z M 5.875 9.769531 C 5.859375 9.984375 5.855469 10.199219 5.855469 10.414062 C 5.855469 10.554688 5.855469 10.691406 5.855469 10.835938 C 5.855469 10.988281 5.855469 11.144531 5.855469 11.300781 C 5.855469 11.464844 5.855469 11.625 5.855469 11.789062 C 5.855469 12.324219 5.855469 12.859375 5.855469 13.394531 C 5.855469 13.765625 5.855469 14.136719 5.855469 14.503906 C 5.855469 15.28125 5.855469 16.058594 5.855469 16.835938 C 5.855469 17.835938 5.855469 18.832031 5.855469 19.832031 C 5.855469 20.59375 5.855469 21.359375 5.855469 22.125 C 5.855469 22.492188 5.855469 22.859375 5.855469 23.230469 C 5.855469 23.742188 5.855469 24.257812 5.855469 24.769531 C 5.855469 24.925781 5.855469 25.078125 5.855469 25.238281 C 5.855469 25.375 5.855469 25.515625 5.855469 25.65625 C 5.855469 25.839844 5.855469 25.839844 5.855469 26.027344 C 5.84375 26.304688 5.84375 26.304688 6.023438 26.453125 C 6.242188 26.46875 6.460938 26.472656 6.675781 26.472656 C 6.886719 26.472656 6.886719 26.472656 7.101562 26.472656 C 7.257812 26.472656 7.414062 26.472656 7.574219 26.472656 C 7.738281 26.472656 7.898438 26.472656 8.066406 26.472656 C 8.609375 26.472656 9.152344 26.472656 9.691406 26.472656 C 10.066406 26.472656 10.441406 26.472656 10.816406 26.472656 C 11.703125 26.472656 12.585938 26.472656 13.472656 26.472656 C 14.183594 26.472656 14.890625 26.472656 15.597656 26.472656 C 16.570312 26.472656 17.546875 26.472656 18.519531 26.472656 C 18.890625 26.472656 19.265625 26.472656 19.636719 26.472656 C 20.15625 26.472656 20.675781 26.472656 21.195312 26.472656 C 21.429688 26.472656 21.429688 26.472656 21.667969 26.472656 C 21.808594 26.472656 21.949219 26.472656 22.09375 26.472656 C 22.214844 26.472656 22.339844 26.472656 22.464844 26.472656 C 22.746094 26.484375 22.746094 26.484375 22.894531 26.300781 C 22.910156 26.089844 22.914062 25.871094 22.914062 25.65625 C 22.914062 25.519531 22.914062 25.378906 22.914062 25.238281 C 22.914062 25.082031 22.914062 24.929688 22.914062 24.769531 C 22.914062 24.609375 22.914062 24.449219 22.914062 24.28125 C 22.917969 23.746094 22.914062 23.210938 22.914062 22.675781 C 22.914062 22.304688 22.914062 21.9375 22.914062 21.566406 C 22.917969 20.789062 22.914062 20.011719 22.914062 19.234375 C 22.914062 18.238281 22.914062 17.238281 22.914062 16.242188 C 22.917969 15.476562 22.914062 14.710938 22.914062 13.949219 C 22.914062 13.578125 22.914062 13.210938 22.914062 12.84375 C 22.917969 12.328125 22.914062 11.816406 22.914062 11.300781 C 22.914062 11.070312 22.914062 11.070312 22.914062 10.835938 C 22.914062 10.628906 22.914062 10.628906 22.914062 10.414062 C 22.914062 10.292969 22.914062 10.171875 22.914062 10.046875 C 22.925781 9.765625 22.925781 9.765625 22.746094 9.621094 C 22.527344 9.605469 22.308594 9.601562 22.09375 9.601562 C 21.953125 9.601562 21.8125 9.597656 21.667969 9.597656 C 21.511719 9.597656 21.355469 9.597656 21.195312 9.601562 C 21.03125 9.597656 20.871094 9.597656 20.703125 9.597656 C 20.160156 9.597656 19.621094 9.597656 19.078125 9.597656 C 18.703125 9.597656 18.328125 9.597656 17.957031 9.597656 C 17.070312 9.597656 16.183594 9.597656 15.296875 9.601562 C 14.585938 9.601562 13.878906 9.601562 13.171875 9.601562 C 12.199219 9.597656 11.222656 9.597656 10.25 9.597656 C 9.878906 9.597656 9.503906 9.597656 9.132812 9.597656 C 8.613281 9.597656 8.09375 9.597656 7.574219 9.601562 C 7.339844 9.597656 7.339844 9.597656 7.101562 9.597656 C 6.890625 9.597656 6.890625 9.597656 6.675781 9.601562 C 6.492188 9.601562 6.492188 9.601562 6.304688 9.601562 C 6.023438 9.589844 6.023438 9.589844 5.875 9.769531 Z M 27.566406 9.769531 C 27.550781 9.984375 27.546875 10.199219 27.546875 10.414062 C 27.546875 10.554688 27.542969 10.691406 27.542969 10.835938 C 27.542969 10.988281 27.546875 11.144531 27.546875 11.300781 C 27.546875 11.464844 27.542969 11.625 27.542969 11.789062 C 27.542969 12.324219 27.542969 12.859375 27.542969 13.394531 C 27.542969 13.765625 27.542969 14.136719 27.542969 14.503906 C 27.542969 15.28125 27.542969 16.058594 27.546875 16.835938 C 27.546875 17.835938 27.546875 18.832031 27.542969 19.832031 C 27.542969 20.59375 27.542969 21.359375 27.542969 22.125 C 27.542969 22.492188 27.542969 22.859375 27.542969 23.230469 C 27.542969 23.742188 27.542969 24.257812 27.546875 24.769531 C 27.546875 24.925781 27.542969 25.078125 27.542969 25.238281 C 27.542969 25.375 27.546875 25.515625 27.546875 25.65625 C 27.546875 25.839844 27.546875 25.839844 27.546875 26.027344 C 27.535156 26.304688 27.535156 26.304688 27.714844 26.453125 C 27.929688 26.46875 28.144531 26.472656 28.363281 26.472656 C 28.570312 26.472656 28.570312 26.472656 28.785156 26.472656 C 28.9375 26.472656 29.09375 26.472656 29.25 26.472656 C 29.492188 26.472656 29.492188 26.472656 29.738281 26.472656 C 30.277344 26.472656 30.8125 26.472656 31.347656 26.472656 C 31.71875 26.472656 32.089844 26.472656 32.460938 26.472656 C 33.242188 26.472656 34.019531 26.472656 34.796875 26.472656 C 35.796875 26.472656 36.796875 26.472656 37.800781 26.472656 C 38.566406 26.472656 39.332031 26.472656 40.097656 26.472656 C 40.464844 26.472656 40.835938 26.472656 41.203125 26.472656 C 41.71875 26.472656 42.234375 26.472656 42.75 26.472656 C 42.980469 26.472656 42.980469 26.472656 43.214844 26.472656 C 43.355469 26.472656 43.496094 26.472656 43.636719 26.472656 C 43.820312 26.472656 43.820312 26.472656 44.007812 26.472656 C 44.289062 26.484375 44.289062 26.484375 44.433594 26.300781 C 44.449219 26.089844 44.453125 25.871094 44.453125 25.65625 C 44.453125 25.519531 44.457031 25.378906 44.457031 25.238281 C 44.457031 25.082031 44.453125 24.929688 44.453125 24.769531 C 44.453125 24.609375 44.457031 24.449219 44.457031 24.28125 C 44.457031 23.746094 44.457031 23.210938 44.457031 22.675781 C 44.457031 22.304688 44.457031 21.9375 44.457031 21.566406 C 44.457031 20.789062 44.457031 20.011719 44.453125 19.234375 C 44.453125 18.238281 44.453125 17.238281 44.457031 16.242188 C 44.457031 15.476562 44.457031 14.710938 44.457031 13.949219 C 44.457031 13.578125 44.457031 13.210938 44.457031 12.84375 C 44.457031 12.328125 44.457031 11.816406 44.453125 11.300781 C 44.457031 11.070312 44.457031 11.070312 44.457031 10.835938 C 44.453125 10.628906 44.453125 10.628906 44.453125 10.414062 C 44.453125 10.292969 44.453125 10.171875 44.453125 10.046875 C 44.464844 9.765625 44.464844 9.765625 44.285156 9.621094 C 44.070312 9.605469 43.855469 9.601562 43.636719 9.601562 C 43.429688 9.597656 43.429688 9.597656 43.214844 9.597656 C 43.0625 9.597656 42.90625 9.597656 42.75 9.601562 C 42.507812 9.597656 42.507812 9.597656 42.261719 9.597656 C 41.722656 9.597656 41.1875 9.597656 40.652344 9.597656 C 40.28125 9.597656 39.910156 9.597656 39.539062 9.597656 C 38.757812 9.597656 37.980469 9.597656 37.203125 9.601562 C 36.203125 9.601562 35.203125 9.601562 34.199219 9.597656 C 33.433594 9.597656 32.667969 9.597656 31.902344 9.597656 C 31.535156 9.597656 31.164062 9.597656 30.796875 9.597656 C 30.28125 9.597656 29.765625 9.597656 29.25 9.601562 C 29.019531 9.597656 29.019531 9.597656 28.785156 9.597656 C 28.644531 9.597656 28.503906 9.601562 28.363281 9.601562 C 28.179688 9.601562 28.179688 9.601562 27.992188 9.601562 C 27.710938 9.589844 27.710938 9.589844 27.566406 9.769531 Z M 49.105469 9.769531 C 49.089844 9.984375 49.085938 10.199219 49.085938 10.414062 C 49.085938 10.554688 49.085938 10.691406 49.085938 10.835938 C 49.085938 10.988281 49.085938 11.144531 49.085938 11.300781 C 49.085938 11.464844 49.085938 11.625 49.085938 11.789062 C 49.082031 12.324219 49.085938 12.859375 49.085938 13.394531 C 49.085938 13.765625 49.085938 14.136719 49.085938 14.503906 C 49.082031 15.28125 49.085938 16.058594 49.085938 16.835938 C 49.085938 17.835938 49.085938 18.832031 49.085938 19.832031 C 49.082031 20.59375 49.085938 21.359375 49.085938 22.125 C 49.085938 22.492188 49.085938 22.859375 49.085938 23.230469 C 49.082031 23.742188 49.085938 24.257812 49.085938 24.769531 C 49.085938 24.925781 49.085938 25.078125 49.085938 25.238281 C 49.085938 25.375 49.085938 25.515625 49.085938 25.65625 C 49.085938 25.839844 49.085938 25.839844 49.085938 26.027344 C 49.074219 26.304688 49.074219 26.304688 49.253906 26.453125 C 49.472656 26.46875 49.691406 26.472656 49.90625 26.472656 C 50.117188 26.472656 50.117188 26.472656 50.332031 26.472656 C 50.488281 26.472656 50.644531 26.472656 50.804688 26.472656 C 50.96875 26.472656 51.128906 26.472656 51.296875 26.472656 C 51.839844 26.472656 52.378906 26.472656 52.921875 26.472656 C 53.296875 26.472656 53.671875 26.472656 54.042969 26.472656 C 54.929688 26.472656 55.816406 26.472656 56.703125 26.472656 C 57.414062 26.472656 58.121094 26.472656 58.828125 26.472656 C 59.800781 26.472656 60.777344 26.472656 61.75 26.472656 C 62.121094 26.472656 62.496094 26.472656 62.867188 26.472656 C 63.386719 26.472656 63.90625 26.472656 64.425781 26.472656 C 64.660156 26.472656 64.660156 26.472656 64.898438 26.472656 C 65.039062 26.472656 65.179688 26.472656 65.324219 26.472656 C 65.445312 26.472656 65.570312 26.472656 65.695312 26.472656 C 65.976562 26.484375 65.976562 26.484375 66.125 26.300781 C 66.140625 26.089844 66.144531 25.871094 66.144531 25.65625 C 66.144531 25.519531 66.144531 25.378906 66.144531 25.238281 C 66.144531 25.082031 66.144531 24.929688 66.144531 24.769531 C 66.144531 24.609375 66.144531 24.449219 66.144531 24.28125 C 66.144531 23.746094 66.144531 23.210938 66.144531 22.675781 C 66.144531 22.304688 66.144531 21.9375 66.144531 21.566406 C 66.144531 20.789062 66.144531 20.011719 66.144531 19.234375 C 66.144531 18.238281 66.144531 17.238281 66.144531 16.242188 C 66.144531 15.476562 66.144531 14.710938 66.144531 13.949219 C 66.144531 13.578125 66.144531 13.210938 66.144531 12.84375 C 66.144531 12.328125 66.144531 11.816406 66.144531 11.300781 C 66.144531 11.070312 66.144531 11.070312 66.144531 10.835938 C 66.144531 10.628906 66.144531 10.628906 66.144531 10.414062 C 66.144531 10.292969 66.144531 10.171875 66.144531 10.046875 C 66.15625 9.765625 66.15625 9.765625 65.976562 9.621094 C 65.757812 9.605469 65.539062 9.601562 65.324219 9.601562 C 65.183594 9.601562 65.042969 9.597656 64.898438 9.597656 C 64.742188 9.597656 64.585938 9.597656 64.425781 9.601562 C 64.261719 9.597656 64.101562 9.597656 63.933594 9.597656 C 63.390625 9.597656 62.847656 9.597656 62.308594 9.597656 C 61.933594 9.597656 61.558594 9.597656 61.183594 9.597656 C 60.296875 9.597656 59.414062 9.597656 58.527344 9.601562 C 57.816406 9.601562 57.109375 9.601562 56.402344 9.601562 C 55.429688 9.597656 54.453125 9.597656 53.480469 9.597656 C 53.109375 9.597656 52.734375 9.597656 52.363281 9.597656 C 51.84375 9.597656 51.324219 9.597656 50.804688 9.601562 C 50.570312 9.597656 50.570312 9.597656 50.332031 9.597656 C 50.121094 9.597656 50.121094 9.597656 49.90625 9.601562 C 49.722656 9.601562 49.722656 9.601562 49.535156 9.601562 C 49.253906 9.589844 49.253906 9.589844 49.105469 9.769531 Z M 5.875 31.113281 C 5.859375 31.328125 5.855469 31.542969 5.855469 31.757812 C 5.855469 31.894531 5.855469 32.035156 5.855469 32.179688 C 5.855469 32.332031 5.855469 32.484375 5.855469 32.644531 C 5.855469 32.804688 5.855469 32.964844 5.855469 33.132812 C 5.855469 33.667969 5.855469 34.203125 5.855469 34.738281 C 5.855469 35.109375 5.855469 35.476562 5.855469 35.847656 C 5.855469 36.625 5.855469 37.402344 5.855469 38.179688 C 5.855469 39.175781 5.855469 40.175781 5.855469 41.171875 C 5.855469 41.9375 5.855469 42.703125 5.855469 43.46875 C 5.855469 43.835938 5.855469 44.203125 5.855469 44.570312 C 5.855469 45.085938 5.855469 45.597656 5.855469 46.113281 C 5.855469 46.265625 5.855469 46.421875 5.855469 46.578125 C 5.855469 46.71875 5.855469 46.855469 5.855469 47 C 5.855469 47.183594 5.855469 47.183594 5.855469 47.367188 C 5.84375 47.648438 5.84375 47.648438 6.023438 47.796875 C 6.242188 47.808594 6.460938 47.816406 6.675781 47.816406 C 6.886719 47.816406 6.886719 47.816406 7.101562 47.816406 C 7.257812 47.816406 7.414062 47.816406 7.574219 47.816406 C 7.738281 47.816406 7.898438 47.816406 8.066406 47.816406 C 8.609375 47.816406 9.152344 47.816406 9.691406 47.816406 C 10.066406 47.816406 10.441406 47.816406 10.816406 47.816406 C 11.703125 47.816406 12.585938 47.816406 13.472656 47.816406 C 14.183594 47.8125 14.890625 47.816406 15.597656 47.816406 C 16.570312 47.816406 17.546875 47.816406 18.519531 47.816406 C 18.890625 47.816406 19.265625 47.816406 19.636719 47.816406 C 20.15625 47.816406 20.675781 47.816406 21.195312 47.816406 C 21.429688 47.816406 21.429688 47.816406 21.667969 47.816406 C 21.808594 47.816406 21.949219 47.816406 22.09375 47.816406 C 22.214844 47.816406 22.339844 47.816406 22.464844 47.816406 C 22.746094 47.824219 22.746094 47.824219 22.894531 47.644531 C 22.910156 47.429688 22.914062 47.214844 22.914062 47 C 22.914062 46.863281 22.914062 46.722656 22.914062 46.578125 C 22.914062 46.425781 22.914062 46.269531 22.914062 46.113281 C 22.914062 45.953125 22.914062 45.789062 22.914062 45.625 C 22.917969 45.089844 22.914062 44.554688 22.914062 44.019531 C 22.914062 43.648438 22.914062 43.277344 22.914062 42.910156 C 22.917969 42.132812 22.914062 41.355469 22.914062 40.578125 C 22.914062 39.582031 22.914062 38.582031 22.914062 37.582031 C 22.917969 36.820312 22.914062 36.054688 22.914062 35.289062 C 22.914062 34.921875 22.914062 34.554688 22.914062 34.183594 C 22.917969 33.671875 22.914062 33.15625 22.914062 32.644531 C 22.914062 32.414062 22.914062 32.414062 22.914062 32.179688 C 22.914062 31.96875 22.914062 31.96875 22.914062 31.757812 C 22.914062 31.636719 22.914062 31.515625 22.914062 31.386719 C 22.925781 31.109375 22.925781 31.109375 22.746094 30.960938 C 22.527344 30.945312 22.308594 30.941406 22.09375 30.941406 C 21.953125 30.941406 21.8125 30.941406 21.667969 30.941406 C 21.511719 30.941406 21.355469 30.941406 21.195312 30.941406 C 21.03125 30.941406 20.871094 30.941406 20.703125 30.941406 C 20.160156 30.941406 19.621094 30.941406 19.078125 30.941406 C 18.703125 30.941406 18.328125 30.941406 17.957031 30.941406 C 17.070312 30.941406 16.183594 30.941406 15.296875 30.941406 C 14.585938 30.941406 13.878906 30.941406 13.171875 30.941406 C 12.199219 30.941406 11.222656 30.941406 10.25 30.941406 C 9.878906 30.941406 9.503906 30.941406 9.132812 30.941406 C 8.613281 30.941406 8.09375 30.941406 7.574219 30.941406 C 7.339844 30.941406 7.339844 30.941406 7.101562 30.941406 C 6.890625 30.941406 6.890625 30.941406 6.675781 30.941406 C 6.492188 30.941406 6.492188 30.941406 6.304688 30.941406 C 6.023438 30.929688 6.023438 30.929688 5.875 31.113281 Z M 27.566406 31.113281 C 27.550781 31.328125 27.546875 31.542969 27.546875 31.757812 C 27.546875 31.894531 27.542969 32.035156 27.542969 32.179688 C 27.542969 32.332031 27.546875 32.484375 27.546875 32.644531 C 27.546875 32.804688 27.542969 32.964844 27.542969 33.132812 C 27.542969 33.667969 27.542969 34.203125 27.542969 34.738281 C 27.542969 35.109375 27.542969 35.476562 27.542969 35.847656 C 27.542969 36.625 27.542969 37.402344 27.546875 38.179688 C 27.546875 39.175781 27.546875 40.175781 27.542969 41.171875 C 27.542969 41.9375 27.542969 42.703125 27.542969 43.46875 C 27.542969 43.835938 27.542969 44.203125 27.542969 44.570312 C 27.542969 45.085938 27.542969 45.597656 27.546875 46.113281 C 27.546875 46.265625 27.542969 46.421875 27.542969 46.578125 C 27.542969 46.71875 27.546875 46.855469 27.546875 47 C 27.546875 47.183594 27.546875 47.183594 27.546875 47.367188 C 27.535156 47.648438 27.535156 47.648438 27.714844 47.796875 C 27.929688 47.808594 28.144531 47.816406 28.363281 47.816406 C 28.570312 47.816406 28.570312 47.816406 28.785156 47.816406 C 28.9375 47.816406 29.09375 47.816406 29.25 47.816406 C 29.492188 47.816406 29.492188 47.816406 29.738281 47.816406 C 30.277344 47.816406 30.8125 47.816406 31.347656 47.816406 C 31.71875 47.816406 32.089844 47.816406 32.460938 47.816406 C 33.242188 47.816406 34.019531 47.816406 34.796875 47.816406 C 35.796875 47.8125 36.796875 47.816406 37.800781 47.816406 C 38.566406 47.816406 39.332031 47.816406 40.097656 47.816406 C 40.464844 47.816406 40.835938 47.816406 41.203125 47.816406 C 41.71875 47.816406 42.234375 47.816406 42.75 47.816406 C 42.980469 47.816406 42.980469 47.816406 43.214844 47.816406 C 43.355469 47.816406 43.496094 47.816406 43.636719 47.816406 C 43.820312 47.816406 43.820312 47.816406 44.007812 47.816406 C 44.289062 47.824219 44.289062 47.824219 44.433594 47.644531 C 44.449219 47.429688 44.453125 47.214844 44.453125 47 C 44.453125 46.863281 44.457031 46.722656 44.457031 46.578125 C 44.457031 46.425781 44.453125 46.269531 44.453125 46.113281 C 44.453125 45.953125 44.457031 45.789062 44.457031 45.625 C 44.457031 45.089844 44.457031 44.554688 44.457031 44.019531 C 44.457031 43.648438 44.457031 43.277344 44.457031 42.910156 C 44.457031 42.132812 44.457031 41.355469 44.453125 40.578125 C 44.453125 39.582031 44.453125 38.582031 44.457031 37.582031 C 44.457031 36.820312 44.457031 36.054688 44.457031 35.289062 C 44.457031 34.921875 44.457031 34.554688 44.457031 34.183594 C 44.457031 33.671875 44.457031 33.15625 44.453125 32.644531 C 44.457031 32.414062 44.457031 32.414062 44.457031 32.179688 C 44.453125 31.96875 44.453125 31.96875 44.453125 31.757812 C 44.453125 31.636719 44.453125 31.515625 44.453125 31.386719 C 44.464844 31.109375 44.464844 31.109375 44.285156 30.960938 C 44.070312 30.945312 43.855469 30.941406 43.636719 30.941406 C 43.429688 30.941406 43.429688 30.941406 43.214844 30.941406 C 43.0625 30.941406 42.90625 30.941406 42.75 30.941406 C 42.507812 30.941406 42.507812 30.941406 42.261719 30.941406 C 41.722656 30.941406 41.1875 30.941406 40.652344 30.941406 C 40.28125 30.941406 39.910156 30.941406 39.539062 30.941406 C 38.757812 30.941406 37.980469 30.941406 37.203125 30.941406 C 36.203125 30.941406 35.203125 30.941406 34.199219 30.941406 C 33.433594 30.941406 32.667969 30.941406 31.902344 30.941406 C 31.535156 30.941406 31.164062 30.941406 30.796875 30.941406 C 30.28125 30.941406 29.765625 30.941406 29.25 30.941406 C 29.019531 30.941406 29.019531 30.941406 28.785156 30.941406 C 28.644531 30.941406 28.503906 30.941406 28.363281 30.941406 C 28.179688 30.941406 28.179688 30.941406 27.992188 30.941406 C 27.710938 30.933594 27.710938 30.933594 27.566406 31.113281 Z M 49.105469 31.113281 C 49.089844 31.328125 49.085938 31.542969 49.085938 31.757812 C 49.085938 31.894531 49.085938 32.035156 49.085938 32.179688 C 49.085938 32.332031 49.085938 32.484375 49.085938 32.644531 C 49.085938 32.804688 49.085938 32.964844 49.085938 33.132812 C 49.082031 33.667969 49.085938 34.203125 49.085938 34.738281 C 49.085938 35.109375 49.085938 35.476562 49.085938 35.847656 C 49.082031 36.625 49.085938 37.402344 49.085938 38.179688 C 49.085938 39.175781 49.085938 40.175781 49.085938 41.171875 C 49.082031 41.9375 49.085938 42.703125 49.085938 43.46875 C 49.085938 43.835938 49.085938 44.203125 49.085938 44.570312 C 49.082031 45.085938 49.085938 45.597656 49.085938 46.113281 C 49.085938 46.265625 49.085938 46.421875 49.085938 46.578125 C 49.085938 46.71875 49.085938 46.855469 49.085938 47 C 49.085938 47.183594 49.085938 47.183594 49.085938 47.367188 C 49.074219 47.648438 49.074219 47.648438 49.253906 47.796875 C 49.472656 47.808594 49.691406 47.816406 49.90625 47.816406 C 50.117188 47.816406 50.117188 47.816406 50.332031 47.816406 C 50.488281 47.816406 50.644531 47.816406 50.804688 47.816406 C 50.96875 47.816406 51.128906 47.816406 51.296875 47.816406 C 51.839844 47.816406 52.378906 47.816406 52.921875 47.816406 C 53.296875 47.816406 53.671875 47.816406 54.042969 47.816406 C 54.929688 47.816406 55.816406 47.816406 56.703125 47.816406 C 57.414062 47.8125 58.121094 47.816406 58.828125 47.816406 C 59.800781 47.816406 60.777344 47.816406 61.75 47.816406 C 62.121094 47.816406 62.496094 47.816406 62.867188 47.816406 C 63.386719 47.816406 63.90625 47.816406 64.425781 47.816406 C 64.660156 47.816406 64.660156 47.816406 64.898438 47.816406 C 65.039062 47.816406 65.179688 47.816406 65.324219 47.816406 C 65.445312 47.816406 65.570312 47.816406 65.695312 47.816406 C 65.976562 47.824219 65.976562 47.824219 66.125 47.644531 C 66.140625 47.429688 66.144531 47.214844 66.144531 47 C 66.144531 46.863281 66.144531 46.722656 66.144531 46.578125 C 66.144531 46.425781 66.144531 46.269531 66.144531 46.113281 C 66.144531 45.953125 66.144531 45.789062 66.144531 45.625 C 66.144531 45.089844 66.144531 44.554688 66.144531 44.019531 C 66.144531 43.648438 66.144531 43.277344 66.144531 42.910156 C 66.144531 42.132812 66.144531 41.355469 66.144531 40.578125 C 66.144531 39.582031 66.144531 38.582031 66.144531 37.582031 C 66.144531 36.820312 66.144531 36.054688 66.144531 35.289062 C 66.144531 34.921875 66.144531 34.554688 66.144531 34.183594 C 66.144531 33.671875 66.144531 33.15625 66.144531 32.644531 C 66.144531 32.414062 66.144531 32.414062 66.144531 32.179688 C 66.144531 31.96875 66.144531 31.96875 66.144531 31.757812 C 66.144531 31.636719 66.144531 31.515625 66.144531 31.386719 C 66.15625 31.109375 66.15625 31.109375 65.976562 30.960938 C 65.757812 30.945312 65.539062 30.941406 65.324219 30.941406 C 65.183594 30.941406 65.042969 30.941406 64.898438 30.941406 C 64.742188 30.941406 64.585938 30.941406 64.425781 30.941406 C 64.261719 30.941406 64.101562 30.941406 63.933594 30.941406 C 63.390625 30.941406 62.847656 30.941406 62.308594 30.941406 C 61.933594 30.941406 61.558594 30.941406 61.183594 30.941406 C 60.296875 30.941406 59.414062 30.941406 58.527344 30.941406 C 57.816406 30.941406 57.109375 30.941406 56.402344 30.941406 C 55.429688 30.941406 54.453125 30.941406 53.480469 30.941406 C 53.109375 30.941406 52.734375 30.941406 52.363281 30.941406 C 51.84375 30.941406 51.324219 30.941406 50.804688 30.941406 C 50.570312 30.941406 50.570312 30.941406 50.332031 30.941406 C 50.121094 30.941406 50.121094 30.941406 49.90625 30.941406 C 49.722656 30.941406 49.722656 30.941406 49.535156 30.941406 C 49.253906 30.929688 49.253906 30.929688 49.105469 31.113281 Z M 5.875 52.605469 C 5.859375 52.820312 5.855469 53.035156 5.855469 53.25 C 5.855469 53.390625 5.855469 53.527344 5.855469 53.671875 C 5.855469 53.824219 5.855469 53.980469 5.855469 54.136719 C 5.855469 54.296875 5.855469 54.460938 5.855469 54.625 C 5.855469 55.160156 5.855469 55.695312 5.855469 56.230469 C 5.855469 56.601562 5.855469 56.972656 5.855469 57.339844 C 5.855469 58.117188 5.855469 58.894531 5.855469 59.671875 C 5.855469 60.671875 5.855469 61.667969 5.855469 62.667969 C 5.855469 63.429688 5.855469 64.195312 5.855469 64.960938 C 5.855469 65.328125 5.855469 65.695312 5.855469 66.066406 C 5.855469 66.578125 5.855469 67.09375 5.855469 67.605469 C 5.855469 67.757812 5.855469 67.914062 5.855469 68.070312 C 5.855469 68.210938 5.855469 68.351562 5.855469 68.492188 C 5.855469 68.675781 5.855469 68.675781 5.855469 68.863281 C 5.84375 69.140625 5.84375 69.140625 6.023438 69.289062 C 6.242188 69.304688 6.460938 69.308594 6.675781 69.308594 C 6.886719 69.308594 6.886719 69.308594 7.101562 69.308594 C 7.257812 69.308594 7.414062 69.308594 7.574219 69.308594 C 7.738281 69.308594 7.898438 69.308594 8.066406 69.308594 C 8.609375 69.308594 9.152344 69.308594 9.691406 69.308594 C 10.066406 69.308594 10.441406 69.308594 10.816406 69.308594 C 11.703125 69.308594 12.585938 69.308594 13.472656 69.308594 C 14.183594 69.308594 14.890625 69.308594 15.597656 69.308594 C 16.570312 69.308594 17.546875 69.308594 18.519531 69.308594 C 18.890625 69.308594 19.265625 69.308594 19.636719 69.308594 C 20.15625 69.308594 20.675781 69.308594 21.195312 69.308594 C 21.429688 69.308594 21.429688 69.308594 21.667969 69.308594 C 21.808594 69.308594 21.949219 69.308594 22.09375 69.308594 C 22.214844 69.308594 22.339844 69.308594 22.464844 69.308594 C 22.746094 69.320312 22.746094 69.320312 22.894531 69.136719 C 22.910156 68.921875 22.914062 68.707031 22.914062 68.492188 C 22.914062 68.355469 22.914062 68.214844 22.914062 68.070312 C 22.914062 67.917969 22.914062 67.765625 22.914062 67.605469 C 22.914062 67.445312 22.914062 67.285156 22.914062 67.117188 C 22.917969 66.582031 22.914062 66.046875 22.914062 65.511719 C 22.914062 65.140625 22.914062 64.773438 22.914062 64.402344 C 22.917969 63.625 22.914062 62.847656 22.914062 62.070312 C 22.914062 61.074219 22.914062 60.074219 22.914062 59.078125 C 22.917969 58.3125 22.914062 57.546875 22.914062 56.78125 C 22.914062 56.414062 22.914062 56.046875 22.914062 55.679688 C 22.917969 55.164062 22.914062 54.652344 22.914062 54.136719 C 22.914062 53.90625 22.914062 53.90625 22.914062 53.671875 C 22.914062 53.460938 22.914062 53.460938 22.914062 53.25 C 22.914062 53.128906 22.914062 53.007812 22.914062 52.882812 C 22.925781 52.601562 22.925781 52.601562 22.746094 52.453125 C 22.527344 52.441406 22.308594 52.4375 22.09375 52.4375 C 21.953125 52.433594 21.8125 52.433594 21.667969 52.433594 C 21.511719 52.433594 21.355469 52.433594 21.195312 52.433594 C 21.03125 52.433594 20.871094 52.433594 20.703125 52.433594 C 20.160156 52.433594 19.621094 52.433594 19.078125 52.433594 C 18.703125 52.433594 18.328125 52.433594 17.957031 52.433594 C 17.070312 52.433594 16.183594 52.433594 15.296875 52.4375 C 14.585938 52.4375 13.878906 52.4375 13.171875 52.433594 C 12.199219 52.433594 11.222656 52.433594 10.25 52.433594 C 9.878906 52.433594 9.503906 52.433594 9.132812 52.433594 C 8.613281 52.433594 8.09375 52.433594 7.574219 52.433594 C 7.339844 52.433594 7.339844 52.433594 7.101562 52.433594 C 6.890625 52.433594 6.890625 52.433594 6.675781 52.4375 C 6.492188 52.4375 6.492188 52.4375 6.304688 52.4375 C 6.023438 52.425781 6.023438 52.425781 5.875 52.605469 Z M 27.566406 52.605469 C 27.550781 52.820312 27.546875 53.035156 27.546875 53.25 C 27.546875 53.390625 27.542969 53.527344 27.542969 53.671875 C 27.542969 53.824219 27.546875 53.980469 27.546875 54.136719 C 27.546875 54.296875 27.542969 54.460938 27.542969 54.625 C 27.542969 55.160156 27.542969 55.695312 27.542969 56.230469 C 27.542969 56.601562 27.542969 56.972656 27.542969 57.339844 C 27.542969 58.117188 27.542969 58.894531 27.546875 59.671875 C 27.546875 60.671875 27.546875 61.667969 27.542969 62.667969 C 27.542969 63.429688 27.542969 64.195312 27.542969 64.960938 C 27.542969 65.328125 27.542969 65.695312 27.542969 66.066406 C 27.542969 66.578125 27.542969 67.09375 27.546875 67.605469 C 27.546875 67.757812 27.542969 67.914062 27.542969 68.070312 C 27.542969 68.210938 27.546875 68.351562 27.546875 68.492188 C 27.546875 68.675781 27.546875 68.675781 27.546875 68.863281 C 27.535156 69.140625 27.535156 69.140625 27.714844 69.289062 C 27.929688 69.304688 28.144531 69.308594 28.363281 69.308594 C 28.570312 69.308594 28.570312 69.308594 28.785156 69.308594 C 28.9375 69.308594 29.09375 69.308594 29.25 69.308594 C 29.492188 69.308594 29.492188 69.308594 29.738281 69.308594 C 30.277344 69.308594 30.8125 69.308594 31.347656 69.308594 C 31.71875 69.308594 32.089844 69.308594 32.460938 69.308594 C 33.242188 69.308594 34.019531 69.308594 34.796875 69.308594 C 35.796875 69.308594 36.796875 69.308594 37.800781 69.308594 C 38.566406 69.308594 39.332031 69.308594 40.097656 69.308594 C 40.464844 69.308594 40.835938 69.308594 41.203125 69.308594 C 41.71875 69.308594 42.234375 69.308594 42.75 69.308594 C 42.980469 69.308594 42.980469 69.308594 43.214844 69.308594 C 43.355469 69.308594 43.496094 69.308594 43.636719 69.308594 C 43.820312 69.308594 43.820312 69.308594 44.007812 69.308594 C 44.289062 69.320312 44.289062 69.320312 44.433594 69.136719 C 44.449219 68.921875 44.453125 68.707031 44.453125 68.492188 C 44.453125 68.355469 44.457031 68.214844 44.457031 68.070312 C 44.457031 67.917969 44.453125 67.765625 44.453125 67.605469 C 44.453125 67.445312 44.457031 67.285156 44.457031 67.117188 C 44.457031 66.582031 44.457031 66.046875 44.457031 65.511719 C 44.457031 65.140625 44.457031 64.773438 44.457031 64.402344 C 44.457031 63.625 44.457031 62.847656 44.453125 62.070312 C 44.453125 61.074219 44.453125 60.074219 44.457031 59.078125 C 44.457031 58.3125 44.457031 57.546875 44.457031 56.78125 C 44.457031 56.414062 44.457031 56.046875 44.457031 55.679688 C 44.457031 55.164062 44.457031 54.652344 44.453125 54.136719 C 44.457031 53.90625 44.457031 53.90625 44.457031 53.671875 C 44.453125 53.460938 44.453125 53.460938 44.453125 53.25 C 44.453125 53.128906 44.453125 53.007812 44.453125 52.882812 C 44.464844 52.601562 44.464844 52.601562 44.285156 52.453125 C 44.070312 52.441406 43.855469 52.4375 43.636719 52.4375 C 43.429688 52.433594 43.429688 52.433594 43.214844 52.433594 C 43.0625 52.433594 42.90625 52.433594 42.75 52.433594 C 42.507812 52.433594 42.507812 52.433594 42.261719 52.433594 C 41.722656 52.433594 41.1875 52.433594 40.652344 52.433594 C 40.28125 52.433594 39.910156 52.433594 39.539062 52.433594 C 38.757812 52.433594 37.980469 52.433594 37.203125 52.433594 C 36.203125 52.4375 35.203125 52.4375 34.199219 52.433594 C 33.433594 52.433594 32.667969 52.433594 31.902344 52.433594 C 31.535156 52.433594 31.164062 52.433594 30.796875 52.433594 C 30.28125 52.433594 29.765625 52.433594 29.25 52.433594 C 29.019531 52.433594 29.019531 52.433594 28.785156 52.433594 C 28.644531 52.433594 28.503906 52.433594 28.363281 52.4375 C 28.179688 52.4375 28.179688 52.4375 27.992188 52.4375 C 27.710938 52.425781 27.710938 52.425781 27.566406 52.605469 Z M 49.105469 52.605469 C 49.089844 52.820312 49.085938 53.035156 49.085938 53.25 C 49.085938 53.390625 49.085938 53.527344 49.085938 53.671875 C 49.085938 53.824219 49.085938 53.980469 49.085938 54.136719 C 49.085938 54.296875 49.085938 54.460938 49.085938 54.625 C 49.082031 55.160156 49.085938 55.695312 49.085938 56.230469 C 49.085938 56.601562 49.085938 56.972656 49.085938 57.339844 C 49.082031 58.117188 49.085938 58.894531 49.085938 59.671875 C 49.085938 60.671875 49.085938 61.667969 49.085938 62.667969 C 49.082031 63.429688 49.085938 64.195312 49.085938 64.960938 C 49.085938 65.328125 49.085938 65.695312 49.085938 66.066406 C 49.082031 66.578125 49.085938 67.09375 49.085938 67.605469 C 49.085938 67.757812 49.085938 67.914062 49.085938 68.070312 C 49.085938 68.210938 49.085938 68.351562 49.085938 68.492188 C 49.085938 68.675781 49.085938 68.675781 49.085938 68.863281 C 49.074219 69.140625 49.074219 69.140625 49.253906 69.289062 C 49.472656 69.304688 49.691406 69.308594 49.90625 69.308594 C 50.117188 69.308594 50.117188 69.308594 50.332031 69.308594 C 50.488281 69.308594 50.644531 69.308594 50.804688 69.308594 C 50.96875 69.308594 51.128906 69.308594 51.296875 69.308594 C 51.839844 69.308594 52.378906 69.308594 52.921875 69.308594 C 53.296875 69.308594 53.671875 69.308594 54.042969 69.308594 C 54.929688 69.308594 55.816406 69.308594 56.703125 69.308594 C 57.414062 69.308594 58.121094 69.308594 58.828125 69.308594 C 59.800781 69.308594 60.777344 69.308594 61.75 69.308594 C 62.121094 69.308594 62.496094 69.308594 62.867188 69.308594 C 63.386719 69.308594 63.90625 69.308594 64.425781 69.308594 C 64.660156 69.308594 64.660156 69.308594 64.898438 69.308594 C 65.039062 69.308594 65.179688 69.308594 65.324219 69.308594 C 65.445312 69.308594 65.570312 69.308594 65.695312 69.308594 C 65.976562 69.320312 65.976562 69.320312 66.125 69.136719 C 66.140625 68.921875 66.144531 68.707031 66.144531 68.492188 C 66.144531 68.355469 66.144531 68.214844 66.144531 68.070312 C 66.144531 67.917969 66.144531 67.765625 66.144531 67.605469 C 66.144531 67.445312 66.144531 67.285156 66.144531 67.117188 C 66.144531 66.582031 66.144531 66.046875 66.144531 65.511719 C 66.144531 65.140625 66.144531 64.773438 66.144531 64.402344 C 66.144531 63.625 66.144531 62.847656 66.144531 62.070312 C 66.144531 61.074219 66.144531 60.074219 66.144531 59.078125 C 66.144531 58.3125 66.144531 57.546875 66.144531 56.78125 C 66.144531 56.414062 66.144531 56.046875 66.144531 55.679688 C 66.144531 55.164062 66.144531 54.652344 66.144531 54.136719 C 66.144531 53.90625 66.144531 53.90625 66.144531 53.671875 C 66.144531 53.460938 66.144531 53.460938 66.144531 53.25 C 66.144531 53.128906 66.144531 53.007812 66.144531 52.882812 C 66.15625 52.601562 66.15625 52.601562 65.976562 52.453125 C 65.757812 52.441406 65.539062 52.4375 65.324219 52.4375 C 65.183594 52.433594 65.042969 52.433594 64.898438 52.433594 C 64.742188 52.433594 64.585938 52.433594 64.425781 52.433594 C 64.261719 52.433594 64.101562 52.433594 63.933594 52.433594 C 63.390625 52.433594 62.847656 52.433594 62.308594 52.433594 C 61.933594 52.433594 61.558594 52.433594 61.183594 52.433594 C 60.296875 52.433594 59.414062 52.433594 58.527344 52.4375 C 57.816406 52.4375 57.109375 52.4375 56.402344 52.433594 C 55.429688 52.433594 54.453125 52.433594 53.480469 52.433594 C 53.109375 52.433594 52.734375 52.433594 52.363281 52.433594 C 51.84375 52.433594 51.324219 52.433594 50.804688 52.433594 C 50.570312 52.433594 50.570312 52.433594 50.332031 52.433594 C 50.121094 52.433594 50.121094 52.433594 49.90625 52.4375 C 49.722656 52.4375 49.722656 52.4375 49.535156 52.4375 C 49.253906 52.425781 49.253906 52.425781 49.105469 52.605469 Z M 49.105469 52.605469 "/>
</g>
</svg>
